<svg width="513" height="512" viewBox="0 0 513 512" fill="none" xmlns="http://www.w3.org/2000/svg"><path d="m157.021 215.147 99.429-99.427 99.483 99.479 57.855-57.856L256.45 0 99.166 157.291l57.855 57.856Zm-98.71-17.011 57.853 57.855-57.857 57.858L.453 255.994l57.857-57.858Zm98.71 98.717 99.429 99.427 99.478-99.475 57.888 57.823-.028.033L256.45 512 99.162 354.713l-.081-.081 57.94-57.779Zm355.432-40.835-57.857 57.858-57.854-57.855 57.857-57.858 57.854 57.855Z" fill="#F3BA2F"/><path d="M315.135 255.97h.024l-58.708-58.709-43.387 43.387-4.986 4.986-10.283 10.283-.081.081.081.085 58.656 58.657 58.708-58.71.028-.032-.052-.028Z" fill="#F3BA2F"/></svg>