<?xml version="1.0" encoding="utf-8"?>
<svg version="1.1" id="Capa_1" xmlns="http://www.w3.org/2000/svg" xmlns:xlink="http://www.w3.org/1999/xlink" x="0px" y="0px"
	 viewBox="0 0 512 512" style="enable-background:new 0 0 512 512;" xml:space="preserve">
<style type="text/css">
	.st0{fill-rule:evenodd;clip-rule:evenodd;fill:#FFB300;}
	.st1{fill:#FFB300;}
	.st2{fill-rule:evenodd;clip-rule:evenodd;fill:#4DD0E1;}
</style>
<polygon class="st0" points="264.1,53.1 264.1,152.8 84.5,256.5 84.5,156.8 108.1,143.2 108.1,59.5 154,59.5 154,116.7 186.7,97.8 
	186.7,25.4 232.6,25.4 232.6,71.3 "/>
<polygon class="st0" points="449,157.2 449,363.2 361.1,312.4 361.1,206.5 268,152.8 268,52.7 "/>
<path class="st0" d="M176.2,212.8v202.5l87.9-50.7v-101L176.2,212.8z"/>
<path class="st1" d="M172.1,210.6L172,311.7l-87.4-50.5L172.1,210.6L172.1,210.6z"/>
<path class="st2" d="M199.2,206.6l63.5-36.7l81.4,47v91.2L278.5,346v-93.6L199.2,206.6z"/>
<polygon class="st0" points="445.8,366.5 414.9,384.3 414.9,460.7 369,460.7 369,410.8 348,422.9 348,485.6 302.1,485.6 
	302.1,449.4 265.9,470.3 178.7,420 358.6,316.1 "/>
</svg>
