<svg xmlns="http://www.w3.org/2000/svg" viewBox="0 0 1020.5 1020.5" style="enable-background:new 0 0 1020.5 1020.5" xml:space="preserve"><switch><g><linearGradient id="a" gradientUnits="userSpaceOnUse" x1="162.252" y1="137.072" x2="858.215" y2="883.401"><stop offset=".05" style="stop-color:#cb00eb"/><stop offset=".218" style="stop-color:#b200e4"/><stop offset=".517" style="stop-color:#8a00da"/><stop offset=".754" style="stop-color:#7200d3"/><stop offset=".9" style="stop-color:#6900d1"/></linearGradient><path d="M510.2 0C228.4 0 0 228.4 0 510.2s228.4 510.2 510.2 510.2 510.2-228.4 510.2-510.2S792 0 510.2 0zm0 816.9c-168.7 0-305.5-137.3-305.5-306.7s136.8-306.7 305.5-306.7 305.5 137.3 305.5 306.7S679 816.9 510.2 816.9z" style="fill-rule:evenodd;clip-rule:evenodd;fill:url(#a)"/><linearGradient id="b" gradientUnits="userSpaceOnUse" x1="162.252" y1="137.072" x2="858.215" y2="883.401"><stop offset="0" style="stop-color:#c967da"/><stop offset="1" style="stop-color:#8f23cd"/></linearGradient><path d="M510.2 6c68.1 0 134.1 13.3 196.3 39.6 60 25.4 114 61.8 160.3 108.1 46.3 46.3 82.7 100.2 108 160.3 26.3 62.2 39.6 128.2 39.6 196.3s-13.3 134.1-39.6 196.3c-25.4 60-61.8 114-108.1 160.3-46.3 46.3-100.2 82.7-160.3 108.1-62.2 26.3-128.2 39.6-196.3 39.6-68.1 0-134.1-13.3-196.3-39.6-60-25.4-114-61.8-160.3-108.1C107.4 820.5 71 766.5 45.6 706.5 19.3 644.3 6 578.3 6 510.2S19.3 376.1 45.6 314c25.4-60 61.8-114 108.1-160.3C200 107.4 253.9 71 314 45.6 376.1 19.3 442.2 6 510.2 6m0-6C228.4 0 0 228.4 0 510.2s228.4 510.2 510.2 510.2c281.8 0 510.2-228.4 510.2-510.2S792 0 510.2 0z" style="fill:url(#b)"/><linearGradient id="c" gradientUnits="userSpaceOnUse" x1="293.933" y1="278.282" x2="726.534" y2="742.19"><stop offset=".05" style="stop-color:#d033f3"/><stop offset=".9" style="stop-color:#8824db"/></linearGradient><path d="M510.2 203.5c168.7 0 305.5 137.3 305.5 306.7 0 169.4-136.8 306.7-305.5 306.7S204.7 679.6 204.7 510.2c0-169.4 136.8-306.7 305.5-306.7m0-11c-42.7 0-84.2 8.4-123.2 25-37.7 16-71.5 38.9-100.6 68.1-29.1 29.2-51.9 63.2-67.8 101-16.5 39.2-24.9 80.8-24.9 123.7s8.4 84.5 24.9 123.7c15.9 37.8 38.8 71.8 67.8 101 29.1 29.1 62.9 52 100.6 68 39 16.6 80.5 25 123.2 25s84.2-8.4 123.2-25c37.7-16 71.5-38.9 100.6-68.1 29.1-29.2 51.9-63.2 67.8-101 16.5-39.2 24.9-80.8 24.9-123.7s-8.4-84.5-24.9-123.7c-15.9-37.8-38.8-71.8-67.8-101-29.1-29.2-62.9-52.1-100.6-68.1-39-16.5-80.4-24.9-123.2-24.9z" style="fill:url(#c)"/></g></switch></svg>