<svg width="512" height="512" viewBox="0 0 512 512" fill="none" xmlns="http://www.w3.org/2000/svg"><path d="M256.124 3.879c-105.275 0-136.064.108-142.048.605C92.471 6.28 79.028 9.68 64.382 16.974c-11.287 5.604-20.188 12.101-28.974 21.209-16 16.609-25.696 37.042-29.206 61.331-1.707 11.792-2.203 14.196-2.304 74.426-.039 20.077 0 46.499 0 81.94 0 105.192.116 135.951.62 141.924 1.746 21.023 5.043 34.25 12.025 48.718 13.342 27.695 38.825 48.485 68.846 56.242 10.395 2.677 21.876 4.151 36.615 4.849 6.244.271 69.893.465 133.581.465 63.688 0 127.376-.077 133.465-.387 17.066-.803 26.976-2.134 37.933-4.965 30.215-7.797 55.233-28.277 68.847-56.359 6.846-14.119 10.317-27.85 11.888-47.775.341-4.344.485-73.608.485-142.778 0-69.182-.155-138.318-.497-142.662-1.59-20.247-5.061-33.862-12.128-48.252-5.799-11.78-12.237-20.577-21.585-29.572-16.682-15.934-37.084-25.631-61.396-29.138-11.779-1.702-14.126-2.207-74.4-2.311h-82.073Z" fill="url(#a)"/><path d="M256.124 3.879c-105.275 0-136.064.108-142.048.605C92.471 6.28 79.028 9.68 64.382 16.974c-11.287 5.604-20.188 12.101-28.974 21.209-16 16.609-25.696 37.042-29.206 61.331-1.707 11.792-2.203 14.196-2.304 74.426-.039 20.077 0 46.499 0 81.94 0 105.192.116 135.951.62 141.924 1.746 21.023 5.043 34.25 12.025 48.718 13.342 27.695 38.825 48.485 68.846 56.242 10.395 2.677 21.876 4.151 36.615 4.849 6.244.271 69.893.465 133.581.465 63.688 0 127.376-.077 133.465-.387 17.066-.803 26.976-2.134 37.933-4.965 30.215-7.797 55.233-28.277 68.847-56.359 6.846-14.119 10.317-27.85 11.888-47.775.341-4.344.485-73.608.485-142.778 0-69.182-.155-138.318-.497-142.662-1.59-20.247-5.061-33.862-12.128-48.252-5.799-11.78-12.237-20.577-21.585-29.572-16.682-15.934-37.084-25.631-61.396-29.138-11.779-1.702-14.126-2.207-74.4-2.311h-82.073Z" fill="url(#b)"/><path d="M256.008 69.818c-50.563 0-56.908.221-76.767 1.125-19.82.908-33.349 4.046-45.186 8.65-12.245 4.755-22.632 11.116-32.981 21.469-10.356 10.348-16.717 20.736-21.488 32.977-4.615 11.842-7.757 25.375-8.649 45.188-.888 19.86-1.121 26.209-1.121 76.773 0 50.564.225 56.89 1.125 76.75.911 19.82 4.05 33.349 8.65 45.187 4.758 12.246 11.12 22.633 21.472 32.982 10.344 10.356 20.731 16.733 32.968 21.488 11.846 4.604 25.378 7.742 45.195 8.65 19.858.904 26.2 1.125 76.758 1.125 50.567 0 56.893-.221 76.752-1.125 19.82-.908 33.364-4.046 45.209-8.65 12.241-4.755 22.613-11.132 32.957-21.488 10.357-10.349 16.717-20.736 21.488-32.978 4.577-11.842 7.719-25.375 8.65-45.187.892-19.86 1.125-26.19 1.125-76.754 0-50.564-.233-56.91-1.125-76.769-.931-19.821-4.073-33.35-8.65-45.188-4.771-12.245-11.131-22.633-21.488-32.981-10.356-10.356-20.712-16.718-32.968-21.47-11.869-4.603-25.406-7.741-45.226-8.649-19.858-.904-26.181-1.125-76.758-1.125h.058Zm-16.702 33.552c4.957-.008 10.488 0 16.702 0 49.709 0 55.6.178 75.23 1.07 18.153.83 28.004 3.864 34.567 6.412 8.688 3.374 14.883 7.408 21.395 13.925 6.516 6.516 10.55 12.722 13.932 21.411 2.548 6.555 5.585 16.407 6.412 34.56.892 19.626 1.086 25.522 1.086 75.209 0 49.688-.194 55.583-1.086 75.21-.831 18.153-3.864 28.005-6.412 34.56-3.374 8.689-7.416 14.875-13.932 21.388-6.516 6.516-12.703 10.55-21.395 13.925-6.555 2.56-16.414 5.585-34.567 6.415-19.626.892-25.521 1.086-75.23 1.086-49.713 0-55.605-.194-75.231-1.086-18.152-.838-28.004-3.871-34.571-6.419-8.688-3.375-14.894-7.409-21.41-13.925-6.516-6.517-10.55-12.707-13.932-21.399-2.548-6.556-5.585-16.408-6.411-34.56-.893-19.627-1.071-25.523-1.071-75.241s.178-55.583 1.071-75.21c.83-18.153 3.863-28.005 6.411-34.568 3.374-8.688 7.416-14.894 13.932-21.411 6.516-6.516 12.722-10.55 21.41-13.932 6.563-2.56 16.419-5.586 34.571-6.42 17.175-.775 23.831-1.008 58.529-1.047v.047Zm116.081 30.914c-12.334 0-22.341 9.995-22.341 22.334 0 12.334 10.007 22.342 22.341 22.342 12.334 0 22.341-10.008 22.341-22.342 0-12.335-10.007-22.342-22.341-22.342v.008Zm-99.379 26.104c-52.801 0-95.609 42.81-95.609 95.612 0 52.802 42.808 95.593 95.609 95.593 52.8 0 95.593-42.791 95.593-95.593 0-52.802-42.793-95.612-95.593-95.612Zm0 33.551c34.272 0 62.058 27.784 62.058 62.061 0 34.273-27.786 62.061-62.058 62.061-34.276 0-62.059-27.788-62.059-62.061 0-34.277 27.783-62.061 62.059-62.061Z" fill="#fff"/><defs><radialGradient id="a" cx="0" cy="0" r="1" gradientUnits="userSpaceOnUse" gradientTransform="matrix(0 -499.699 464.872 0 137.842 546.912)"><stop stop-color="#FD5"/><stop offset=".1" stop-color="#FD5"/><stop offset=".5" stop-color="#FF543E"/><stop offset="1" stop-color="#C837AB"/></radialGradient><radialGradient id="b" cx="0" cy="0" r="1" gradientUnits="userSpaceOnUse" gradientTransform="rotate(78.678 -64.821 -29.066) scale(223.37 920.945)"><stop stop-color="#3771C8"/><stop offset=".128" stop-color="#3771C8"/><stop offset="1" stop-color="#60F" stop-opacity="0"/></radialGradient></defs></svg>