<svg width="512" height="317" viewBox="0 0 512 317" fill="none" xmlns="http://www.w3.org/2000/svg"><path d="M186.517 33.87h138.556V282.8H186.517V33.87Z" fill="#FF5A00"/><path d="M195.741 158.335c0-50.575 23.775-95.462 60.259-124.465C229.15 12.76 195.279 0 158.335 0 70.815 0 0 70.815 0 158.335c0 87.519 70.815 158.334 158.335 158.334 36.944 0 70.815-12.759 97.665-33.87-36.535-28.592-60.259-73.889-60.259-124.464Z" fill="#EB001B"/><path d="M512 158.335c0 87.519-70.815 158.334-158.335 158.334-36.944 0-70.815-12.759-97.665-33.87 36.945-29.054 60.259-73.889 60.259-124.464S292.484 62.873 256 33.87C282.799 12.76 316.669 0 353.614 0 441.185 0 512 71.276 512 158.335Z" fill="#F79E1B"/></svg>