<svg xmlns="http://www.w3.org/2000/svg" xml:space="preserve" viewBox="0 0 800.469 208.556"><path fill="#141685" d="M293.134 95.862C293.134 43.051 227.517 0 146.572 0 65.632 0 .017 43.051.017 95.862c0 1.363-.017 5.134-.017 5.612C0 157.5 57.352 202.876 146.554 202.876c89.755 0 146.58-45.364 146.58-101.392v-5.622z"/><path fill="#05b0d9" d="M287.521 95.814c0 49.788-63.091 90.15-140.923 90.15-77.829 0-140.918-40.362-140.918-90.15C5.681 46.021 68.77 5.66 146.599 5.66c77.832 0 140.922 40.361 140.922 90.154z"/><g fill="#fff"><path d="M99.808 67.372c-.074.142-1.48 1.596-.569 2.765 2.225 2.841 9.092 4.47 16.039 2.913 4.136-.93 9.437-5.146 14.573-9.22 5.564-4.423 11.086-8.85 16.637-10.611 5.876-1.87 9.641-1.068 12.129-.315 2.73.814 5.938 2.61 11.057 6.451 9.644 7.25 48.416 41.092 55.115 46.943 5.396-2.437 29.375-12.76 61.959-19.942-2.831-17.373-13.398-33.265-29.424-46.279-22.336 9.381-49.634 14.276-76.326 1.239-.137-.056-14.583-6.893-28.833-6.557-21.179.491-30.354 9.658-40.063 19.36L99.808 67.372z"/><path d="M223.214 109.979c-.454-.404-45.589-39.898-55.815-47.584-5.917-4.437-9.208-5.569-12.664-6.01-1.8-.233-4.284.101-6.022.577-4.757 1.295-10.975 5.454-16.499 9.831-5.717 4.554-11.108 8.843-16.109 9.962-6.391 1.433-14.195-.258-17.756-2.666-1.443-.969-2.458-2.091-2.947-3.231-1.315-3.049 1.112-5.488 1.51-5.896l12.456-13.472a276.188 276.188 0 0 1 4.397-4.315c-4.019.524-7.734 1.55-11.351 2.557-4.513 1.27-8.854 2.477-13.245 2.474-1.833 0-11.655-1.61-13.52-2.117C64.378 47.003 54.486 44 39.708 37.1 22.001 50.281 10.161 66.764 6.74 84.917c2.544.673 6.643 1.893 8.365 2.274 40.071 8.909 52.552 18.088 54.815 20.003 2.452-2.728 5.985-4.454 9.934-4.454 4.435.006 8.429 2.233 10.857 5.677 2.295-1.813 5.459-3.361 9.55-3.359 1.857 0 3.785.344 5.732 1.006 4.522 1.551 6.854 4.561 8.064 7.285a13.359 13.359 0 0 1 5.577-1.184c2.157 0 4.402.492 6.664 1.47 7.388 3.171 8.538 10.427 7.868 15.898a13.573 13.573 0 0 1 1.593-.086c8.759.006 15.884 7.125 15.88 15.891 0 2.711-.693 5.261-1.899 7.5 2.384 1.34 8.46 4.371 13.793 3.694 4.262-.535 5.88-1.993 6.46-2.813.396-.564.816-1.222.427-1.694l-11.307-12.56s-1.862-1.761-1.248-2.439c.64-.697 1.788.303 2.602.984 5.754 4.806 12.781 12.058 12.781 12.058.117.078.583.997 3.181 1.463 2.237.4 6.194.168 8.936-2.084a13.388 13.388 0 0 0 1.961-2.01c-.045.035-.083.084-.126.101 2.891-3.698-.32-7.443-.32-7.443l-13.2-14.823s-1.888-1.744-1.247-2.447c.575-.608 1.79.312 2.616.998 4.179 3.496 10.084 9.421 15.744 14.965 1.105.809 6.081 3.887 12.666-.441 3.996-2.62 4.8-5.841 4.687-8.271-.278-3.216-2.788-5.507-2.788-5.507l-18.032-18.128s-1.903-1.627-1.231-2.449c.551-.693 1.788.305 2.598.983 5.747 4.806 21.294 19.062 21.294 19.062.221.157 5.594 3.981 12.233-.246 2.373-1.517 3.891-3.806 4.02-6.461.229-4.613-3.026-7.351-3.026-7.351z"/><path d="M135.758 132.96c-2.796-.033-5.854 1.627-6.253 1.386-.22-.146.171-1.27.433-1.917.268-.643 3.95-11.721-5.024-15.569-6.868-2.952-11.066.369-12.509 1.868-.379.392-.548.361-.592-.14-.138-1.994-1.031-7.392-6.958-9.2-8.472-2.593-13.919 3.32-15.301 5.454-.619-4.829-4.701-8.577-9.701-8.582-5.432-.006-9.839 4.396-9.845 9.827-.001 5.431 4.402 9.835 9.833 9.835a9.762 9.762 0 0 0 6.8-2.744c.056.052.079.144.049.332-.412 2.431-1.175 11.27 8.081 14.868 3.711 1.441 6.868.369 9.485-1.466.779-.55.907-.318.795.414-.334 2.272.089 7.14 6.911 9.908 5.192 2.108 8.264-.05 10.276-1.909.876-.801 1.115-.671 1.161.564.248 6.577 5.711 11.799 12.346 11.806 6.837.007 12.377-5.521 12.38-12.354.004-6.839-5.532-12.307-12.367-12.381z"/></g><path fill="#141685" d="M224.96 105.251c-13.903-12.134-46.036-40.069-54.739-46.601-4.971-3.74-8.363-5.715-11.34-6.602-1.336-.404-3.188-.864-5.571-.866-2.212 0-4.59.4-7.072 1.189-5.625 1.779-11.227 6.233-16.647 10.54l-.278.221c-5.05 4.012-10.266 8.165-14.214 9.047a24.03 24.03 0 0 1-5.264.588c-4.423-.006-8.396-1.283-9.884-3.181-.246-.313-.089-.823.486-1.555l.077-.097 12.23-13.182c9.58-9.579 18.628-18.625 39.457-19.103.342-.01.695-.016 1.039-.016 12.965.008 25.926 5.812 27.379 6.484 12.156 5.93 24.703 8.942 37.317 8.953 13.146.004 26.708-3.25 40.968-9.816a110.792 110.792 0 0 0-4.955-3.921c-12.527 5.431-24.463 8.175-35.979 8.171-11.761-.01-23.513-2.835-34.921-8.402-.602-.287-14.913-7.035-29.804-7.041-.39 0-.786.006-1.175.012-17.495.411-27.35 6.622-33.977 12.066-6.445.156-12.006 1.711-16.954 3.093-4.415 1.227-8.227 2.291-11.946 2.288-1.532 0-4.289-.14-4.536-.148-4.276-.13-25.819-5.415-42.958-11.903a114.782 114.782 0 0 0-5.072 3.82c17.903 7.34 39.69 13.019 46.566 13.462 1.914.125 3.953.342 5.992.347 4.548 0 9.088-1.276 13.482-2.505 2.594-.729 5.458-1.521 8.47-2.099-.805.79-1.606 1.59-2.411 2.396L96.299 64.333c-.977.987-3.101 3.622-1.701 6.868.557 1.31 1.687 2.561 3.268 3.626 2.961 1.994 8.264 3.342 13.189 3.347 1.866.002 3.635-.186 5.261-.55 5.208-1.169 10.672-5.522 16.462-10.124 4.612-3.665 11.165-8.317 16.181-9.685 1.402-.381 3.124-.618 4.507-.618.414.004.804.017 1.167.068 3.315.421 6.519 1.549 12.241 5.843 10.2 7.662 55.341 47.151 55.783 47.542.031.024 2.909 2.507 2.709 6.634-.107 2.301-1.386 4.347-3.606 5.763-1.926 1.223-3.916 1.845-5.926 1.845-3.017-.006-5.095-1.418-5.229-1.516-.167-.136-15.632-14.317-21.321-19.08-.907-.751-1.788-1.427-2.678-1.427a1.47 1.47 0 0 0-1.182.557c-.896 1.103.107 2.631 1.289 3.637l18.065 18.159c.025.019 2.252 2.107 2.495 4.893.143 3.01-1.297 5.528-4.289 7.488-2.131 1.405-4.29 2.118-6.403 2.118-2.773 0-4.722-1.265-5.152-1.563l-2.592-2.555c-4.736-4.66-9.627-9.478-13.206-12.465-.872-.726-1.806-1.396-2.693-1.396-.439 0-.835.163-1.138.482-.408.454-.693 1.27.324 2.623.42.557.913 1.016.913 1.016l13.183 14.808c.109.132 2.717 3.231.297 6.318l-.466.591c-.394.436-.821.836-1.225 1.182-2.249 1.846-5.253 2.043-6.443 2.043-.635 0-1.249-.055-1.782-.152-1.301-.233-2.175-.596-2.597-1.095l-.159-.167c-.722-.744-7.367-7.528-12.866-12.117-.724-.608-1.626-1.374-2.563-1.374-.462 0-.872.182-1.19.532-1.088 1.192.544 2.973 1.237 3.626l11.245 12.399c-.012.11-.154.365-.426.758-.402.557-1.767 1.922-5.846 2.433-.488.065-.994.09-1.493.09-4.206 0-8.692-2.04-11.004-3.267a16.708 16.708 0 0 0 1.598-7.126c.004-9.256-7.511-16.784-16.765-16.79a17.5 17.5 0 0 0-.606.013c.303-4.225-.294-12.226-8.507-15.748-2.363-1.022-4.721-1.544-7.012-1.544-1.793 0-3.517.307-5.14.93-1.701-3.307-4.526-5.715-8.212-6.971-2.035-.705-4.062-1.062-6.021-1.062-3.416 0-6.564 1.006-9.373 3.004-2.69-3.346-6.755-5.327-11.035-5.327a14.261 14.261 0 0 0-10.016 4.142c-3.499-2.672-17.383-11.493-54.541-19.93-1.8-.406-5.93-1.592-8.459-2.332a60.045 60.045 0 0 0-.951 6.097s6.854 1.641 8.202 1.944c37.96 8.431 50.502 17.198 52.622 18.855a14.338 14.338 0 0 0-1.095 5.459c-.004 7.842 6.374 14.229 14.222 14.235.879 0 1.751-.076 2.608-.235 1.182 5.771 4.958 10.146 10.73 12.392 1.687.647 3.394.981 5.068.981a13.056 13.056 0 0 0 3.239-.406c1.064 2.707 3.464 6.082 8.825 8.26 1.881.757 3.761 1.152 5.587 1.152 1.493 0 2.953-.262 4.345-.773 2.569 6.258 8.684 10.404 15.5 10.404a16.746 16.746 0 0 0 12.019-5.091c2.709 1.506 8.424 4.229 14.199 4.237.749 0 1.45-.054 2.151-.137 5.736-.726 8.405-2.969 9.632-4.713.221-.304.421-.626.59-.963 1.354.39 2.843.707 4.549.712 3.133 0 6.14-1.069 9.179-3.283 2.985-2.152 5.107-5.243 5.413-7.874.006-.035.012-.074.016-.113 1.006.209 2.039.315 3.07.315 3.225 0 6.398-1.006 9.429-2.992 5.848-3.834 6.864-8.84 6.767-12.119 1.022.214 2.068.323 3.107.323 3.029 0 6-.911 8.835-2.717 3.624-2.315 5.806-5.864 6.136-9.992.227-2.807-.468-5.637-1.949-8.07 9.798-4.22 32.189-12.389 58.556-18.331-.159-2.045-.454-4.064-.818-6.074-31.904 7.082-55.71 17.385-61.673 20.038zm-89.202 51.562c-6.195-.005-11.233-4.82-11.459-10.956-.017-.525-.07-1.924-1.254-1.924-.486 0-.909.293-1.395.732-1.361 1.262-3.097 2.546-5.631 2.546-1.148 0-2.396-.268-3.711-.806-6.542-2.649-6.633-7.145-6.367-8.95.071-.482.097-.984-.235-1.374l-.402-.36h-.408c-.332 0-.675.136-1.139.461-1.893 1.33-3.707 1.975-5.552 1.975-1.016 0-2.058-.204-3.101-.606-8.615-3.353-7.934-11.482-7.513-13.93.062-.495-.06-.88-.376-1.136l-.608-.501-.569.544a8.87 8.87 0 0 1-6.184 2.505c-4.934-.006-8.948-4.014-8.944-8.949.004-4.936 4.022-8.942 8.957-8.936 4.457 0 8.253 3.352 8.822 7.806l.308 2.402 1.32-2.033c.148-.237 3.763-5.703 10.407-5.696 1.265 0 2.57.204 3.883.61 5.299 1.617 6.196 6.42 6.334 8.42.095 1.167.924 1.223 1.087 1.223.457 0 .793-.291 1.032-.54a9.035 9.035 0 0 1 6.586-2.779c1.559.006 3.219.375 4.932 1.111 8.418 3.612 4.6 14.311 4.554 14.422-.723 1.773-.752 2.557-.072 3.008l.332.159h.246c.379 0 .852-.165 1.631-.429 1.146-.396 2.876-.991 4.492-.987h.004c6.338.068 11.492 5.227 11.49 11.493-.006 6.331-5.163 11.475-11.497 11.475zm656.776-122.03c-5.289-6.629-13.319-9.941-24.097-9.941-10.765 0-18.798 3.312-24.084 9.941-5.295 6.625-7.942 14.455-7.942 23.49 0 9.196 2.647 17.055 7.942 23.597 5.286 6.52 13.319 9.792 24.084 9.792 10.777 0 18.808-3.271 24.097-9.792 5.295-6.542 7.936-14.401 7.936-23.597-.001-9.035-2.641-16.865-7.936-23.49zm-13.108 38.022c-2.568 3.408-6.239 5.111-11.041 5.111-4.789 0-8.48-1.703-11.068-5.111-2.589-3.404-3.877-8.251-3.877-14.532 0-6.272 1.288-11.106 3.877-14.495 2.588-3.387 6.279-5.083 11.068-5.083 4.802 0 8.473 1.695 11.041 5.083 2.563 3.388 3.852 8.223 3.852 14.495 0 6.28-1.289 11.127-3.852 14.532zM657.335 29.24c-5.361-2.72-11.504-4.093-18.413-4.093-10.62 0-18.118 2.773-22.479 8.304-2.744 3.544-4.285 8.06-4.645 13.559h15.87c.391-2.427 1.17-4.349 2.341-5.77 1.637-1.921 4.418-2.882 8.353-2.882 3.516 0 6.172.482 7.991 1.474 1.806.978 2.718 2.759 2.718 5.33 0 2.12-1.178 3.67-3.547 4.676-1.319.577-3.507 1.058-6.575 1.441l-5.624.693c-6.391.804-11.241 2.156-14.525 4.043-6.011 3.461-9.011 9.051-9.011 16.783 0 5.955 1.858 10.565 5.6 13.814 3.722 3.25 8.467 4.612 14.188 4.878 35.887 1.602 35.479-18.911 35.81-23.177V44.702c-.002-7.571-2.688-12.729-8.052-15.462zm-8.333 35.826c-.109 5.499-1.688 9.287-4.712 11.363-3.026 2.079-6.334 3.12-9.919 3.12-2.271 0-4.193-.631-5.776-1.878-1.58-1.249-2.365-3.28-2.365-6.088 0-3.15 1.289-5.474 3.876-6.977 1.54-.88 4.052-1.639 7.561-2.241l3.748-.695c1.863-.355 3.332-.732 4.404-1.138a16.645 16.645 0 0 0 3.184-1.577v6.111zM575.51 39.212c4.104 0 7.114 1.266 9.063 3.798 1.335 1.874 2.17 3.987 2.492 6.33h17.702c-.973-8.93-4.098-15.165-9.372-18.697-5.292-3.516-12.071-5.289-20.36-5.289-9.75 0-17.407 2.995-22.937 8.972-5.545 5.985-8.317 14.35-8.317 25.103 0 9.521 2.506 17.282 7.522 23.263 5.017 5.978 12.843 8.971 23.477 8.971 10.646 0 18.684-3.585 24.099-10.756 3.397-4.444 5.3-9.161 5.7-14.148h-17.641c-.359 3.297-1.388 5.985-3.097 8.056-1.701 2.062-4.569 3.103-8.627 3.103-5.714 0-9.602-2.604-11.67-7.827-1.13-2.786-1.703-6.474-1.703-11.063 0-4.814.573-8.674 1.703-11.592 2.149-5.478 6.143-8.224 11.966-8.224zm-36.474-13.858c-36.36 0-34.209 32.194-34.209 32.194V90.25h16.5V59.576c0-5.025.637-8.746 1.893-11.167 2.267-4.288 6.687-6.441 13.287-6.441a46.891 46.891 0 0 1 4.721.297V25.477c-.731-.049-1.207-.07-1.411-.09a8.826 8.826 0 0 0-.781-.033zm-60.612 47.81c-.692.987-1.437 1.834-2.26 2.494-2.33 1.92-5.495 2.504-9.222 2.504-3.528 0-6.285-.535-8.783-2.109-4.118-2.53-6.434-6.812-6.681-13.099h45.654c.064-5.41-.111-9.554-.549-12.438-.758-4.91-2.426-9.237-4.989-12.961-2.847-4.222-6.47-7.313-10.834-9.277-4.369-1.948-9.278-2.927-14.731-2.927-9.194 0-16.657 2.896-22.416 8.685-5.754 5.802-8.645 14.12-8.645 24.977 0 11.591 3.191 19.956 9.572 25.096 6.374 5.14 13.742 7.715 22.078 7.715 10.103 0 17.967-3.047 23.579-9.146 3.029-3.208 4.926-6.383 5.726-9.513h-17.499zm-22.18-30.724c2.323-2.384 5.581-3.579 9.785-3.579 3.87 0 7.106 1.122 9.726 3.379 2.604 2.249 4.063 5.556 4.358 9.898h-28.232c.59-4.079 2.051-7.308 4.363-9.698zm-27.9 47.804h-15.072V52.292c0-3.468-1.144-11.716-11.086-11.716-6.628 0-11.425 4.781-11.425 11.716v37.952h-15.085V52.292c0-3.468-1.029-11.716-10.965-11.716-6.744 0-11.431 4.781-11.431 11.716v37.952H338.2V52.652c0-15.669 10.394-27.518 26.511-27.518 8 0 14.507 3.359 18.74 8.742 4.451-5.383 11.076-8.742 18.735-8.742 16.454 0 26.159 11.368 26.159 27.518v37.592zm303.159-84.71s-16.62-1.775-16.62 11.576l-.012 17.675c-1.84-2.952-4.233-5.264-7.186-6.926-2.944-1.667-6.317-2.505-10.124-2.505-8.243 0-14.812 3.07-19.743 9.201-4.933 6.138-7.386 14.98-7.386 25.674 0 9.278 2.499 16.886 7.503 22.809 5.001 5.916 14.812 8.514 23.522 8.514 30.384 0 30.033-26.055 30.033-26.055l.013-59.963zm-19.791 67.407c-2.407 3.453-5.948 5.177-10.577 5.177-4.647 0-8.104-1.74-10.379-5.206-2.278-3.474-3.417-8.529-3.417-14.315 0-5.369 1.114-9.864 3.358-13.486 2.237-3.618 5.751-5.437 10.547-5.437 3.146 0 5.903.998 8.286 2.989 3.87 3.299 5.806 9.217 5.806 16.878 0 5.482-1.21 9.948-3.624 13.4z"/><path d="M458.687 194.972c0 2.231-.813 4.149-2.437 5.742-1.61 1.598-3.552 2.396-5.818 2.396h-8.241v-57.337c0-11.15 3.758-18.134 9.941-22.853 4.089-3.12 10.18-6.097 21.587-6.097 7.703 0 16.727 2.99 21.599 8.932 5.469 6.682 7.749 14.127 7.749 23.854 0 10.059-2.425 18.175-7.272 24.414-4.849 6.069-11.08 9.092-18.682 9.092-4.041 0-7.596-.72-10.666-2.146-3.247-1.6-5.82-4.069-7.761-7.424v21.427zm27.651-44.648c0-6.222-1.211-11.003-3.646-14.36-2.423-3.338-5.899-5.029-10.429-5.029-4.361 0-7.759 1.69-10.196 5.029-2.256 3.035-3.381 7.834-3.381 14.36 0 6.083 1.206 10.61 3.637 13.646 2.418 3.356 5.901 5.028 10.428 5.028 4.198 0 7.518-1.672 9.94-5.028 2.436-3.351 3.647-7.885 3.647-13.646m126.059 27.503v-4.052c-2.855 4.472-6.716 7.244-11.557 8.369-4.849 1.106-9.65.712-14.406-1.206-4.77-1.905-8.865-5.455-12.281-10.63-3.408-5.198-5.114-12.013-5.114-20.464 0-9.873 2.264-17.893 6.784-24.029 4.529-6.134 11.802-8.934 21.806-9.208 9.857-.26 15.59 1.972 21.201 6.221 6.137 4.657 9.766 11.804 9.766 22.954v33.733c.024 10.733-7.46 30.627-30.967 28.939-14.565-1.056-22.648-7.03-27.159-20.568h17.391c1.27 2.225 3.212 3.94 5.846 5.126 2.605 1.212 5.242 1.521 7.845.962 2.618-.557 5.003-2.117 7.162-4.657 2.13-2.552 3.36-6.382 3.683-11.49m-27.162-27.494c0 10.998 3.182 17.092 9.534 18.299 6.344 1.175 11.034-.298 14.053-4.436 1.432-1.742 2.457-4.502 3.095-8.241.631-3.743.68-7.453.121-11.117-.546-3.676-1.865-6.944-3.933-9.814-2.058-2.864-5.08-4.305-9.052-4.305-5.402 0-9.045 2.002-10.954 5.971-1.92 3.994-2.864 8.536-2.864 13.643m-30.309-29.175c-5.368-2.713-11.509-4.088-18.412-4.088-10.629 0-18.117 2.771-22.483 8.301-2.738 3.54-4.287 8.057-4.642 13.561h15.878c.388-2.429 1.162-4.351 2.336-5.769 1.638-1.922 4.421-2.885 8.349-2.885 3.522 0 6.177.485 7.989 1.473 1.806.981 2.72 2.758 2.72 5.336 0 2.115-1.18 3.672-3.546 4.674-1.315.575-3.504 1.056-6.573 1.441l-5.626.687c-6.387.809-11.242 2.163-14.521 4.045-6.017 3.46-9.014 9.052-9.014 16.779 0 5.956 1.857 10.567 5.6 13.813 3.722 3.248 8.463 4.617 14.187 4.881 35.876 1.604 35.474-18.912 35.802-23.177v-23.612c-.001-7.574-2.678-12.722-8.044-15.46m-8.34 35.826c-.104 5.505-1.683 9.284-4.705 11.364-3.023 2.074-6.33 3.113-9.918 3.113-2.271 0-4.193-.629-5.772-1.874-1.586-1.247-2.378-3.282-2.378-6.091 0-3.146 1.297-5.474 3.885-6.977 1.543-.881 4.049-1.637 7.56-2.237l3.745-.697c1.872-.354 3.341-.728 4.398-1.136a16.387 16.387 0 0 0 3.186-1.579v6.114zm144.423-30.624c-5.296-6.635-13.329-9.942-24.106-9.942-10.754 0-18.788 3.307-24.079 9.942-5.295 6.623-7.94 14.449-7.94 23.49 0 9.193 2.646 17.05 7.94 23.591 5.291 6.516 13.325 9.787 24.079 9.787 10.777 0 18.811-3.271 24.106-9.787 5.286-6.541 7.925-14.397 7.925-23.591 0-9.04-2.639-16.867-7.925-23.49m-13.115 38.011c-2.563 3.411-6.238 5.113-11.032 5.113s-8.488-1.702-11.067-5.113c-2.599-3.399-3.883-8.245-3.883-14.521 0-6.274 1.284-11.109 3.883-14.493 2.579-3.394 6.273-5.081 11.067-5.081s8.47 1.687 11.032 5.081c2.572 3.383 3.853 8.218 3.853 14.493 0 6.276-1.281 11.122-3.853 14.521" fill="#05b0d9"/></svg>