<svg width="513" height="513" viewBox="0 0 513 513" fill="none" xmlns="http://www.w3.org/2000/svg"><path d="M459.141 100.447A255.993 255.993 0 0 0 189.488 9.851 255.996 255.996 0 0 0 27.3 370.89a255.998 255.998 0 0 0 385.753 88.594c111.839-86.431 132.487-247.158 46.088-359.037Z" fill="#FF6C37"/><path d="M342.87 164.03 234.927 272.829l-30.504-31.359c106.239-106.24 116.895-96.64 138.447-77.44Z" fill="#fff"/><path d="M234.927 275.805a3.838 3.838 0 0 1-2.56-1.064l-30.72-30.719a3.844 3.844 0 0 1 0-5.336c104.743-104.743 119.039-99.839 143.783-77.44a3.421 3.421 0 0 1 1.28 2.776 3.001 3.001 0 0 1-1.064 2.776L237.703 274.749a4.037 4.037 0 0 1-2.776 1.056Zm-25.176-34.343 25.176 25.175 102.399-102.399a23.04 23.04 0 0 0-30.296-5.12c-18.56 8.32-48.423 33.704-97.279 82.344Z" fill="#FF6C37"/><path d="m265.863 302.909-29.44-30.08 107.943-106.671c29.016 28.376-14.08 75.744-78.503 136.751Z" fill="#fff"/><path d="M265.863 306.749a4.473 4.473 0 0 1-2.56-1.064l-30.08-29.44a4.481 4.481 0 0 1 0-3.416 4.134 4.134 0 0 1 0-2.776L341.166 162.11a4.05 4.05 0 0 1 5.544 0 33.096 33.096 0 0 1 10.664 25.384c0 28.8-32.856 65.064-88.743 117.975a4.462 4.462 0 0 1-2.768 1.28Zm-23.896-33.92 24.104 24.096c42.663-40.319 83.415-81.919 83.623-110.079a24.323 24.323 0 0 0-5.544-16.424L241.967 272.829Z" fill="#FF6C37"/><path d="m205.271 242.11 21.336 21.335a1.293 1.293 0 0 1 .433.96 1.274 1.274 0 0 1-.433.96l-45.015 9.6a4.262 4.262 0 0 1-3.84-7.256l26.239-26.023s.856 0 1.28.424Z" fill="#fff"/><path d="M180.527 279.229a8.318 8.318 0 0 1-7.04-4.056 8.11 8.11 0 0 1 1.496-9.6l26.024-26.239a5.12 5.12 0 0 1 6.824 0l21.336 21.336a4.704 4.704 0 0 1 1.28 4.695c-.48 1.68-1.888 3.016-3.624 3.416l-45.016 9.6-1.28.848Zm23.896-32.423-24.104 24.103 39.896-8.535-15.792-15.568Z" fill="#FF6C37"/><path d="M400.262 104.079c-15.44-14.896-39.696-15.52-55.888-1.464s-18.96 38.184-6.352 55.543c12.608 17.36 36.376 22.224 54.776 11.2l-29.016-29.015 36.48-36.264Z" fill="#fff"/><path d="M371.462 179.166a45.206 45.206 0 0 1-24.847-7.825 45.21 45.21 0 0 1-16.401-20.239 45.333 45.333 0 0 1 9.6-48.943 45.678 45.678 0 0 1 63.999 0 3.623 3.623 0 0 1 1.28 2.776 3.668 3.668 0 0 1-1.28 2.776l-34.559 32.639 26.24 25.816a3.597 3.597 0 0 1 1.064 3.2 3.845 3.845 0 0 1-1.704 2.776 46.403 46.403 0 0 1-23.464 7.04l.072-.016Zm0-82.775c-15.2.08-28.8 9.224-34.504 23.2-5.704 13.976-2.6 30.063 8.056 40.799a37.32 37.32 0 0 0 41.384 7.896l-25.176-25.176a3.419 3.419 0 0 1 0-5.336l33.28-33.495a38.272 38.272 0 0 0-23.04-7.888Z" fill="#FF6C37"/><path d="m400.902 104.719-36.48 36.263 29.016 29.016a44.136 44.136 0 0 0 8.104-5.976 42.663 42.663 0 0 0-.64-59.303Z" fill="#fff"/><path d="M392.79 173.198a3.205 3.205 0 0 1-2.56-1.064l-29.016-29.016a3.419 3.419 0 0 1 0-5.336l36.264-35.623a3.836 3.836 0 0 1 5.015-1.261c.559.3 1.034.733 1.384 1.261a44.794 44.794 0 0 1 0 63.999 39.015 39.015 0 0 1-8.535 6.824 3.42 3.42 0 0 1-2.552.216Zm-23.464-32.848 24.104 24.104a40.941 40.941 0 0 0 4.696-3.84 37.759 37.759 0 0 0 11.095-26.664 36.633 36.633 0 0 0-9.175-24.319l-30.72 30.719Z" fill="#FF6C37"/><path d="M347.35 168.51a15.585 15.585 0 0 0-21.336 0l-96.631 96.415 16 16.216 102.183-89.599a15.818 15.818 0 0 0 3.514-17.829 15.763 15.763 0 0 0-3.73-5.203Z" fill="#fff"/><path d="M244.527 284.989a3.838 3.838 0 0 1-2.56-1.064l-16.216-16.216a3.837 3.837 0 0 1 0-5.336l96.639-96.215a19.63 19.63 0 0 1 21.674-4.125 19.627 19.627 0 0 1 11.822 18.629 20.087 20.087 0 0 1-6.616 14.08l-102.183 89.599a3.642 3.642 0 0 1-2.56.648Zm-11.304-20.064 10.664 10.88L344.15 188.55a11.783 11.783 0 0 0 4.056-8.536c.096-3.288-1.2-6.504-3.624-8.744a11.945 11.945 0 0 0-16.856 0l-94.503 93.655Z" fill="#FF6C37"/><path d="M154.504 374.797a2.156 2.156 0 0 0 0 2.559l4.264 18.56a5.504 5.504 0 0 1-2.656 5.6 5.2 5.2 0 0 1-6.096-.616l-29.224-28.159 91.095-91.816h31.576l21.336 21.336a484.353 484.353 0 0 1-110.295 72.536Z" fill="#fff"/><path d="M152.584 406.156c-2.416-.048-4.8-1.04-6.4-2.776l-27.944-27.943a3.416 3.416 0 0 1 0-5.336l91.727-91.944a3.607 3.607 0 0 1 1.92-1.064h31.784a3.85 3.85 0 0 1 2.56 0l21.336 21.336c.405.374.714.841.9 1.361.185.52.241 1.077.164 1.623a3.44 3.44 0 0 1-1.28 2.776l-1.704 1.496a522.71 522.71 0 0 1-109.439 70.184l4.056 17.279a9.207 9.207 0 0 1-4.808 10.319 9.2 9.2 0 0 1-3.936.985l1.064 1.704Zm-26.024-33.495 25.168 25.383a1.277 1.277 0 0 0 1.704 0 1.278 1.278 0 0 0 0-1.496l-4.264-18.559a5.953 5.953 0 0 1 3.2-6.824 524.503 524.503 0 0 0 106.663-68.696l-17.496-17.496h-28.584l-86.391 87.688Z" fill="#FF6C37"/><path d="m98.824 394.636 21.336-21.335 32.856 32.855-52.264-3.624a4.271 4.271 0 0 1-1.92-7.888l-.008-.008Z" fill="#fff"/><path d="m153.648 409.356-52.056-3.624c-3.088-.288-5.744-2.4-6.832-5.224-1.088-2.824-.424-6.176 1.712-8.432l21.336-21.336a3.842 3.842 0 0 1 5.336 0l32.64 32.64a3.622 3.622 0 0 1 0 4.264 4.075 4.075 0 0 1-2.136 1.712Zm-52.056-11.944 42.664 2.776-23.464-21.976-19.2 19.2Z" fill="#FF6C37"/><path d="m246.447 283.501-43.096 6.616 24.96-24.743 18.136 18.127Z" fill="#fff"/><path d="M203.351 294.157a3.65 3.65 0 0 1-3.416-2.136 3.601 3.601 0 0 1 0-4.264l24.744-24.959a4.047 4.047 0 0 1 5.544 0l18.144 18.127a3.606 3.606 0 0 1 0 3.84 3.765 3.765 0 0 1-1.083 1.828c-.53.492-1.19.821-1.901.948l-42.664 6.616h.632Zm24.96-23.256-13.864 13.864 23.896-3.624-10.032-10.24Z" fill="#FF6C37"/><path d="m246.447 283.485-30.08 3.84a3.842 3.842 0 0 1-4.191-1.852 3.84 3.84 0 0 1 .567-4.548l15.576-15.576 18.128 18.136Z" fill="#fff"/><path d="M215.511 291.389a7.9 7.9 0 0 1-6.824-4.056 7.677 7.677 0 0 1 1.28-9.176l15.576-15.576a4.05 4.05 0 0 1 5.544 0l18.136 18.136a3.839 3.839 0 0 1-.306 5.836 3.83 3.83 0 0 1-2.038.78l-29.864 3.84-1.504.216Zm0-7.896 22.616-2.776-10.024-10.024-12.8 12.8h.208Zm185.598-154.238a3.193 3.193 0 0 0-4.055-1.28 2.954 2.954 0 0 0-1.488 1.76 3.01 3.01 0 0 0 .208 2.295 9.177 9.177 0 0 1-1.064 9.6 2.707 2.707 0 0 0-.8 2.024 3.03 3.03 0 0 0 .8 2.024 2.311 2.311 0 0 0 1.704 0 2.797 2.797 0 0 0 2.775-.856 14.707 14.707 0 0 0 1.92-15.567Z" fill="#FF6C37"/></svg>