<svg width="370" height="370" viewBox="0 0 370 370" fill="none" xmlns="http://www.w3.org/2000/svg"><path d="M308.574 0H61.426C27.5 0 0 28.206 0 63V307C0 341.794 27.501 370 61.426 370h247.148C342.499 370 370 341.794 370 306.999V63.001C370 28.206 342.499 0 308.574 0Z" fill="#1999FE"/><path d="M274.14 269.586c9.113-7.219 21.24-9.626 31.275-9.626 9.405 0 17.01 2.124 18.63 4.365 3.375 4.719-.877 37.372-17.437 52.944-2.52 2.406-4.95 1.109-3.825-2.053 3.735-10.428 12.06-33.88 8.1-39.566-3.938-5.71-26.055-2.713-36-1.368-1.53.188-2.408-.472-2.52-1.44v-.542c.09-.85.675-1.841 1.777-2.714ZM45 265.528a2.51 2.51 0 0 1 .803-1.549 2.298 2.298 0 0 1 1.582-.598c.608 0 1.282.213 2.003.661 41.846 27.247 90.107 41.724 139.365 41.808 34.2 0 71.774-8.022 106.334-24.608 5.22-2.478 9.586 3.869 4.501 8.163-30.848 25.717-75.578 39.401-114.075 39.401-53.933 0-102.533-22.555-139.298-60.093A4.135 4.135 0 0 1 45 266.425v-.897ZM80.87 241.979a4.538 4.538 0 0 1-1.688-.26 2.684 2.684 0 0 1-1.124-.873 6.56 6.56 0 0 1-.856-1.675L59.72 191.04a44.965 44.965 0 0 1-.517-1.486 3.99 3.99 0 0 1-.203-1.18c0-1.109.675-1.651 2.047-1.651h10.216c1.102 0 1.89.236 2.407.66.517.425.9 1.157 1.17 2.171l10.53 38.269 10.733-38.269a4.184 4.184 0 0 1 1.17-2.171c.517-.424 1.305-.637 2.407-.637h9.9c1.372 0 2.048.52 2.048 1.605a3.96 3.96 0 0 1-.203 1.179l-.495 1.534-17.483 48.107a6.565 6.565 0 0 1-.877 1.652 2.773 2.773 0 0 1-1.057.896 4.442 4.442 0 0 1-1.756.236l-8.887.024Zm45.45-63.773c-2.281.109-4.515-.711-6.233-2.289a8.018 8.018 0 0 1-1.816-2.798 8.31 8.31 0 0 1-.546-3.336c0-2.596.787-4.672 2.362-6.182 1.722-1.569 3.955-2.381 6.233-2.265 2.588 0 4.657.755 6.232 2.265 1.575 1.51 2.34 3.563 2.34 6.158s-.765 4.648-2.34 6.158c-1.717 1.578-3.951 2.398-6.232 2.289Zm-4.905 63.773c-.9 0-1.53-.236-1.935-.661-.428-.425-.63-1.109-.63-2.053v-49.829c0-1.014.225-1.699.63-2.123.405-.378 1.058-.567 1.935-.567h9.81c.945 0 1.62.189 2.003.59.36.401.54 1.086.54 2.124v49.805c0 .944-.18 1.652-.54 2.053-.383.448-1.058.661-2.025.661h-9.788Zm43.83 1.179c-4.114.101-8.153-1.162-11.542-3.609-3.364-2.535-5.971-6.021-7.515-10.051a39.38 39.38 0 0 1-2.611-14.864c0-8.966 2.025-16.091 6.03-21.47a19.476 19.476 0 0 1 7.043-6.058 18.513 18.513 0 0 1 8.91-1.988c5.059-.111 10 1.605 13.995 4.861v-25.292c0-1.015.225-1.723.607-2.124.405-.377 1.058-.59 1.958-.59h9.81c.945 0 1.597.213 1.98.59.382.401.563 1.109.563 2.124v74.578c0 .944-.181 1.652-.563 2.053-.383.448-1.035.661-1.98.661h-8.19a2.934 2.934 0 0 1-1.89-.543 3.276 3.276 0 0 1-.967-1.84l-.608-2.478c-4.078 3.973-9.464 6.138-15.03 6.04Zm4.905-11.891a16.583 16.583 0 0 0 9.405-3.02v-28.548a18.904 18.904 0 0 0-10.125-2.689c-3.6 0-6.3 1.415-8.055 4.246-1.8 2.855-2.655 7.173-2.655 12.93 0 5.78.923 10.05 2.79 12.882 1.89 2.807 4.77 4.199 8.64 4.199Zm58.23-12.032c-3.802 0-7.087-.378-9.9-1.18.405 4.742 1.755 8.14 4.05 10.192 2.317 2.053 5.783 3.067 10.463 3.067 1.867 0 3.689-.117 5.444-.377a64.81 64.81 0 0 0 7.965-1.793c.164-.03.33-.046.496-.047 1.125 0 1.687.825 1.687 2.43v4.884c0 1.132-.157 1.934-.45 2.383-.453.574-1.055 1-1.733 1.226a40.866 40.866 0 0 1-15.524 2.973c-8.258 0-14.626-2.406-19.036-7.219-4.432-4.813-6.659-11.703-6.659-20.668 0-9.202 2.25-16.398 6.795-21.635 4.545-5.238 10.845-7.857 18.9-7.857 6.21 0 11.069 1.604 14.557 4.789a15.984 15.984 0 0 1 4.015 5.73 16.686 16.686 0 0 1 1.25 6.987c0 5.309-1.89 9.32-5.648 12.033-3.78 2.713-9.359 4.082-16.672 4.082Zm1.418-22.886c-6.413 0-10.125 4.152-11.115 12.505 2.677.566 5.625.849 8.91.849 3.375 0 5.849-.566 7.402-1.652 1.53-1.085 2.295-2.76 2.295-5.025 0-4.483-2.497-6.701-7.492-6.701v.024Zm54.945 47.258c-8.1 0-14.445-2.596-19.013-7.739-4.567-5.143-6.84-12.339-6.84-21.564 0-9.155 2.273-16.303 6.84-21.47 4.568-5.144 10.913-7.716 19.013-7.716 8.1 0 14.444 2.572 19.012 7.716 4.567 5.167 6.84 12.315 6.84 21.47 0 9.201-2.273 16.421-6.84 21.564-4.568 5.143-10.912 7.739-19.012 7.739Zm0-12.127c7.155 0 10.732-5.71 10.732-17.176 0-11.396-3.6-17.082-10.732-17.082-7.155 0-10.733 5.686-10.733 17.082 0 11.466 3.6 17.176 10.733 17.176ZM52 70.133c0-1.014.225-1.722.63-2.123.405-.401 1.057-.59 1.935-.59h7.403c1.574 0 2.52.802 2.857 2.383l.72 2.808c2.047-2.077 4.545-3.752 7.425-4.955a22.463 22.463 0 0 1 8.91-1.864c6.615 0 11.88 2.572 15.75 7.692 3.848 5.12 5.783 12.032 5.783 20.762 0 5.993-.945 11.207-2.858 15.69-1.935 4.482-4.523 7.903-7.808 10.31-3.304 2.431-7.258 3.702-11.294 3.633-2.813 0-5.468-.472-7.988-1.415a19.08 19.08 0 0 1-6.48-3.87v23.665c0 1.014-.18 1.722-.563 2.123-.382.377-1.034.59-2.025.59h-9.81c-.9 0-1.53-.213-1.934-.59-.428-.401-.63-1.109-.63-2.123L52 70.133Zm25.043 7.55c-3.544 0-7.02 1.012-10.058 2.926v28.454a18.121 18.121 0 0 0 10.058 2.925c3.825 0 6.66-1.368 8.46-4.105 1.822-2.761 2.722-7.078 2.722-12.977 0-5.992-.9-10.357-2.655-13.094-1.8-2.737-4.635-4.105-8.527-4.105v-.024Zm50.579-2.052c2.723-3.162 5.31-5.427 7.74-6.748a15.887 15.887 0 0 1 7.763-2.005h1.417c.968 0 1.643.212 2.07.59.405.4.608 1.108.608 2.123v9.083c0 .944-.18 1.604-.563 2.053-.382.424-1.035.637-2.002.637a19.803 19.803 0 0 1-1.845-.095 29.4 29.4 0 0 0-8.617.59c-2.25.472-4.185 1.062-5.76 1.793v36.334c0 .944-.18 1.628-.563 2.053-.36.425-1.035.661-2.002.661h-9.833c-.9 0-1.552-.236-1.957-.661-.405-.425-.631-1.109-.631-2.053V70.133c0-1.014.226-1.722.631-2.123.405-.401 1.057-.59 1.957-.59h7.38c1.575 0 2.52.802 2.88 2.36l1.327 5.85Zm34.336-16.752c-2.285.115-4.525-.696-6.255-2.265a7.999 7.999 0 0 1-1.827-2.82 8.341 8.341 0 0 1-.536-3.361c0-2.596.788-4.648 2.363-6.135 1.725-1.58 3.966-2.399 6.255-2.288 2.61 0 4.68.755 6.255 2.265 1.575 1.51 2.362 3.563 2.362 6.158a8.371 8.371 0 0 1-.541 3.36 8.055 8.055 0 0 1-1.821 2.821c-1.731 1.57-3.971 2.38-6.255 2.265Zm-7.493 11.254c0-1.014.225-1.722.607-2.123.428-.401 1.081-.59 1.958-.59h9.855c.968 0 1.62.189 2.003.59.382.401.562 1.109.562 2.123v49.853c0 .944-.18 1.628-.562 2.053-.383.425-1.035.661-2.025.661h-9.833c-.9 0-1.53-.236-1.958-.661-.405-.425-.607-1.109-.607-2.053V70.133Zm41.333 2.596c3.622-2.525 6.885-4.318 9.787-5.356a26.14 26.14 0 0 1 9-1.58c6.142 0 10.485 2.311 13.028 6.936 3.487-2.454 6.749-4.247 9.854-5.309a28.491 28.491 0 0 1 9.54-1.628c4.793 0 8.483 1.416 11.138 4.223 2.632 2.832 3.938 6.748 3.938 11.797v38.174c0 .944-.18 1.628-.563 2.053-.382.448-1.035.637-2.003.637h-9.855c-.9 0-1.529-.189-1.934-.637-.405-.425-.631-1.109-.631-2.053V85.28c0-4.907-2.07-7.36-6.255-7.36-3.69 0-7.424.943-11.182 2.807v39.259c0 .944-.18 1.628-.563 2.053-.382.448-1.034.637-2.024.637h-9.833c-.9 0-1.53-.189-1.935-.637-.428-.425-.63-1.109-.63-2.053V85.28c0-4.907-2.093-7.36-6.255-7.36-3.825 0-7.582.943-11.295 2.901v39.165c0 .944-.18 1.628-.563 2.053-.382.448-1.035.637-2.002.637h-9.855c-.877 0-1.53-.189-1.935-.637-.405-.425-.608-1.109-.608-2.053V70.133c0-1.014.203-1.722.608-2.123.405-.401 1.058-.59 1.935-.59h7.402c1.575 0 2.521.802 2.881 2.383l.81 2.926Zm98.707 27.368a38.916 38.916 0 0 1-10.148-1.18c.405 4.813 1.801 8.258 4.163 10.382 2.363 2.076 5.917 3.114 10.71 3.114 1.912 0 3.78-.118 5.603-.378a66.515 66.515 0 0 0 8.145-1.84c.171-.03.344-.046.517-.047 1.17 0 1.755.826 1.755 2.477v4.978c0 1.156-.157 1.959-.45 2.431a3.797 3.797 0 0 1-1.8 1.25 42.155 42.155 0 0 1-15.93 3.02c-8.482 0-14.985-2.43-19.53-7.361-4.567-4.884-6.84-11.915-6.84-21.07 0-9.39 2.34-16.75 6.975-22.06 4.657-5.355 11.115-8.02 19.395-8.02 6.368 0 11.34 1.627 14.94 4.86a16.25 16.25 0 0 1 4.116 5.84 16.97 16.97 0 0 1 1.284 7.136c0 5.426-1.957 9.508-5.805 12.268-3.87 2.808-9.562 4.2-17.1 4.2Zm1.44-23.357c-6.57 0-10.35 4.246-11.385 12.74 2.745.59 5.782.873 9.135.873 3.487 0 6.008-.566 7.583-1.675 1.575-1.11 2.362-2.831 2.362-5.144 0-4.553-2.565-6.818-7.695-6.818v.024Z" fill="#000"/></svg>