<svg xmlns="http://www.w3.org/2000/svg" xmlns:xlink="http://www.w3.org/1999/xlink" version="1.0" id="Layer_1" x="0" y="0" width="1000" height="285.478" viewBox="0 0 1000 285.478" xml:space="preserve"><defs id="defs15"><linearGradient xlink:href="#linearGradient923" id="linearGradient952" x1="808" y1="-5.618" x2="806.115" y2="458.382" gradientUnits="userSpaceOnUse"/><linearGradient y2="505.299" x2="440.568" y1="119.398" x1="440.568" gradientUnits="userSpaceOnUse" id="linearGradient923"><stop id="stop27-9" style="stop-color:#11152e" offset=".2"/><stop id="stop29-6" style="stop-color:#020814" offset=".8"/></linearGradient><linearGradient y2="117.492" x2="996.289" y1="500.291" x1="613.49" gradientUnits="userSpaceOnUse" id="Fill-1_1_"><stop id="stop4" style="stop-color:#ff1c6b" offset=".33"/><stop id="stop6" style="stop-color:#ff9702" offset=".676"/></linearGradient><linearGradient xlink:href="#linearGradient923" id="linearGradient95" gradientUnits="userSpaceOnUse" x1="808" y1="-5.618" x2="806.115" y2="458.382"/><linearGradient y2="505.065" x2="1251.098" y1="119.471" x1="1251.098" gradientUnits="userSpaceOnUse" id="SVGID_1_"><stop id="stop13" style="stop-color:#11152e;fill-opacity:1;fill:url(#linearGradient952)" offset=".2"/><stop id="stop15" style="stop-color:#020814;fill-opacity:1;fill:url(#linearGradient952)" offset=".8"/></linearGradient><linearGradient y2="505.706" x2="140.119" y1="119.543" x1="140.119" gradientUnits="userSpaceOnUse" id="SVGID_2_"><stop id="stop20" style="stop-color:#11152e;fill-opacity:1;fill:url(#linearGradient952)" offset=".2"/><stop id="stop22" style="stop-color:#020814;fill-opacity:1;fill:url(#linearGradient952)" offset=".8"/></linearGradient><linearGradient y2="505.299" x2="440.568" y1="119.398" x1="440.568" gradientUnits="userSpaceOnUse" id="SVGID_3_"><stop id="stop27" style="stop-color:#11152e;fill-opacity:1;fill:url(#linearGradient952)" offset=".2"/><stop id="stop29" style="stop-color:#020814;fill-opacity:1;fill:url(#linearGradient952)" offset=".8"/></linearGradient><linearGradient id="path3144_1_" gradientUnits="userSpaceOnUse" x1="432.909" y1="-126.362" x2="646.261" y2="86.793" gradientTransform="matrix(.98565 0 0 -.98565 -81.99 148.872)"><stop offset=".28" style="stop-color:#fa1660" id="stop8"/><stop offset=".78" style="stop-color:#ff7d17" id="stop10"/></linearGradient></defs><style type="text/css" id="style2">.st0{fill:#241c32}</style><g id="g101"><path id="path935" style="font-style:normal;font-variant:normal;font-weight:700;font-stretch:normal;font-size:590.996px;line-height:1;font-family:'Century Gothic';-inkscape-font-specification:'Century Gothic Bold';text-align:center;letter-spacing:3.46px;word-spacing:0;text-anchor:middle;fill:#241c32;fill-opacity:1;stroke-width:3.64691" d="M1458.299 257.716v-133.88h81.855v133.88h122.455v89.254h-122.455v133.523h-81.855V346.97h-122.783v-89.254z" transform="matrix(.59344 0 0 .5212 13.347 -3.286)"/><path id="path11" class="st0" d="M661.908 80.274h30.55c18.393 0 30.162 9.508 30.162 26.108 0 18.081-11.769 29.85-30.161 29.85h-30.551zm52.606 92.354c31.642-4.053 57.75-31.253 57.75-65.856 0-44.891-30.55-69.519-79.805-69.519h-79.495V263.19h48.944v-90.561l60.712 90.483h56.659Z" style="stroke-width:.779357"/><path id="polygon13" class="st0" transform="matrix(.77936 0 0 .77936 0 .078)" d="M409.3 104.8V47.7H218.1v57.1h63.7v232.7h63.8V104.8z"/><path id="path15" class="st0" d="M78.014 120.41c-14.73-6.624-20.264-13.95-20.264-23.536 0-11.067 9.197-20.263 23.927-19.874 12.859.312 22.835 7.326 29.849 23.927l42.32-18.783c-11.77-30.16-35.695-47.774-74.274-47.774-40.838 0-71 26.887-71 62.894 0 24.627 12.159 44.111 40.84 58.53l31.641 15.82c17.614 8.885 26.109 15.432 26.109 28.291 0 13.95-11.379 23.926-26.109 23.926-15.82 0-30.161-8.884-36.786-28.68L0 208.011c10.288 37.175 40.838 58.919 80.586 58.919 43.02 0 76.143-27.59 76.143-67.337 0-30.55-16.523-50.814-48.243-65.076z" style="stroke-width:.779357"/><path id="path3144-6" d="M599.715 108.954H485.072L449.61 0l-35.46 108.954H299.506l91.964 67.492s44.969-29.615 99.446-40.76c-80.352 59.31-123.996 118.15-123.996 118.15l-10.053 31.642 92.743-67.336 92.743 67.336-35.382-109.032z" style="fill:url(#path3144_1_);stroke-width:.779357"/></g></svg>