<svg width="256" height="256" viewBox="0 0 256 256" fill="none" xmlns="http://www.w3.org/2000/svg"><g clip-path="url(#a)"><path d="M0 0h256v256H0V0Z" fill="#3178C6"/><path d="M157.05 203.172v25.462c4.145 2.123 9.047 3.714 14.706 4.775 5.659 1.061 11.623 1.591 17.893 1.591 6.11 0 11.916-.584 17.415-1.751 5.499-1.167 10.322-3.09 14.466-5.768 4.144-2.679 7.426-6.18 9.844-10.504 2.417-4.322 3.626-9.666 3.626-16.032 0-4.615-.691-8.66-2.072-12.135a28.374 28.374 0 0 0-5.978-9.269c-2.603-2.706-5.726-5.132-9.365-7.281-3.64-2.148-7.745-4.177-12.315-6.086-3.347-1.38-6.349-2.719-9.006-4.019-2.656-1.3-4.915-2.625-6.774-3.979-1.86-1.352-3.295-2.785-4.305-4.296-1.009-1.512-1.514-3.222-1.514-5.132 0-1.751.451-3.328 1.355-4.734.903-1.406 2.179-2.613 3.826-3.62 1.647-1.009 3.666-1.791 6.058-2.349 2.39-.556 5.048-.835 7.97-.835 2.126 0 4.37.16 6.734.478 2.365.318 4.743.808 7.134 1.472a49.514 49.514 0 0 1 6.974 2.507 38.42 38.42 0 0 1 6.257 3.5v-23.791c-3.879-1.485-8.117-2.586-12.713-3.302-4.596-.716-9.87-1.074-15.821-1.074-6.058 0-11.796.65-17.215 1.95-5.42 1.299-10.19 3.328-14.308 6.086-4.117 2.759-7.372 6.273-9.763 10.543-2.391 4.271-3.587 9.376-3.587 15.317 0 7.586 2.192 14.057 6.576 19.415 4.384 5.357 11.038 9.893 19.965 13.606a270.524 270.524 0 0 1 9.804 4.218c3.029 1.379 5.645 2.81 7.851 4.296 2.205 1.485 3.945 3.103 5.22 4.853 1.275 1.751 1.913 3.74 1.913 5.968 0 1.644-.399 3.17-1.196 4.576-.796 1.405-2.006 2.625-3.626 3.66-1.62 1.034-3.64 1.842-6.057 2.426-2.418.583-5.248.876-8.489.876-5.526 0-10.998-.968-16.418-2.905-5.421-1.936-10.442-4.84-15.065-8.713Zm-42.476-63.363h32.771v-20.965H56v20.965h32.612v93.347h25.962v-93.347Z" fill="#fff"/></g><defs><clipPath id="a"><path fill="#fff" d="M0 0h256v256H0z"/></clipPath></defs></svg>