<svg fill="none" xmlns="http://www.w3.org/2000/svg" viewBox="0 0 318 104"><mask id="a" style="mask-type:luminance" maskUnits="userSpaceOnUse" x="0" y="0" width="318" height="104"><path d="M164.445 33.592c-.181 14.221 12.704 22.158 22.411 26.876 9.974 4.842 13.324 7.946 13.286 12.275-.076 6.627-7.956 9.55-15.332 9.665-12.866.199-20.346-3.466-26.294-6.238l-4.635 21.636c5.967 2.744 17.016 5.136 28.474 5.241 26.894 0 44.49-13.244 44.586-33.779.104-26.06-36.135-27.502-35.888-39.15.086-3.533 3.464-7.301 10.868-8.26 3.664-.485 13.78-.855 25.248 4.414L231.67 5.34c-6.166-2.24-14.094-4.386-23.963-4.386-25.314 0-43.12 13.424-43.262 32.639ZM274.923 2.757c-4.91 0-9.05 2.857-10.896 7.243l-38.419 91.509h26.875l5.349-14.744h32.842l3.102 14.744h23.687l-20.67-98.752h-21.87Zm3.76 26.676 7.756 37.082h-21.242l13.486-37.082ZM131.86 2.758l-21.184 98.752h25.609L157.46 2.757h-25.6Zm-37.886 0L67.318 69.97 56.536 12.82C55.27 6.44 50.273 2.757 44.725 2.757H1.148l-.61 2.867c8.946 1.936 19.11 5.06 25.267 8.401 3.769 2.042 4.844 3.826 6.081 8.678l20.423 78.806h27.065l41.493-98.752H93.974Z" fill="#fff"/></mask><g mask="url(#a)"><path d="m-32.648 13.146 312.263-114.72 71.039 192.43-312.26 114.721" fill="url(#b)"/></g><defs><linearGradient id="b" x1="29.248" y1="99.944" x2="296.191" y2="1.393" gradientUnits="userSpaceOnUse"><stop stop-color="#222357"/><stop offset="1" stop-color="#254AA5"/></linearGradient></defs></svg>