<svg width="256" height="250" viewBox="0 0 256 250" fill="none" xmlns="http://www.w3.org/2000/svg"><g clip-path="url(#a)"><path d="M213.5 0h-171C19.028 0 0 19.028 0 42.5v164.6c0 23.472 19.028 42.5 42.5 42.5h171c23.472 0 42.5-19.028 42.5-42.5V42.5C256 19.028 236.972 0 213.5 0Z" fill="#6D1ED4"/><path d="M173.47 183.872c-.094-.1-.87-3.272-.97-3.372-5.907-2.078-2.429-.418-2.5-.5-4.707-4.91.161-7.368-2.652-13.91a2.768 2.768 0 0 0-2.538-1.672h-52.647l64.388-82.456a2.79 2.79 0 0 0 .58-1.701V64.19a2.76 2.76 0 0 0-2.761-2.768h-34.726V38.379c0-.757-.621-1.379-1.384-1.379h-21.349c-.762 0-1.383.622-1.383 1.379v23.044h-34.03a2.766 2.766 0 0 0-2.766 2.769v18.627a2.764 2.764 0 0 0 2.767 2.763h59.095l-64.008 81.723a2.76 2.76 0 0 0-.586 1.707v16.796a2.76 2.76 0 0 0 2.761 2.769h36.784v23.039c0 .768.622 1.384 1.384 1.384h21.349c.762 0 1.383-.616 1.383-1.384v-23.039H171.5a2.77 2.77 0 0 0 2.55-1.696 2.774 2.774 0 0 0-.58-3.009Z" fill="#fff"/><path d="M79.827 66.128c.094.1 7.08 2.372.673 2.372 4.407 1.078.43-1.582.5-1.5 4.707 4.91 3.839 10.368 6.652 16.91a2.768 2.768 0 0 0 2.538 1.672h52.647l-64.388 82.456a2.789 2.789 0 0 0-.58 1.701v16.069a2.76 2.76 0 0 0 2.76 2.769h34.727v23.044c0 .757.621 1.379 1.384 1.379h21.349c.762 0 1.383-.622 1.383-1.379v-23.044h34.029a2.766 2.766 0 0 0 2.767-2.769v-18.627a2.764 2.764 0 0 0-2.767-2.763h-59.095l64.008-81.723a2.76 2.76 0 0 0 .586-1.707V64.192a2.76 2.76 0 0 0-2.761-2.769h-36.784V38.384c0-.768-.622-1.384-1.384-1.384h-21.349c-.762 0-1.383.616-1.383 1.384v23.04H81.797a2.768 2.768 0 0 0-2.55 1.695 2.772 2.772 0 0 0 .58 3.009Z" fill="#fff"/></g><defs><clipPath id="a"><path fill="#fff" d="M0 0h256v250H0z"/></clipPath></defs></svg>