<svg fill="none" xmlns="http://www.w3.org/2000/svg" viewBox="0 0 566 244"><path d="M352.998 204.448c-3.601-6.299-5.853-13.395-6.885-21.686a4.193 4.193 0 0 0-1.699-2.877 4.17 4.17 0 0 0-2.462-.805c-.269 0-.537.025-.805.074a23.76 23.76 0 0 1-4.608.463c-4.845 0-8.551-.813-8.551-11.054v-9.802h-.024V21.074a3.831 3.831 0 0 0-3.837-3.828h-27.83a3.83 3.83 0 0 0-3.828 3.828v150.805c0 11.298 1.04 19.832 6.226 27.456 6.348 8.721 18.987 13.785 30.602 13.785.609 0 1.219-.008 1.804-.008h.016c7.055 0 13.94-.642 19.613-2.617a4.196 4.196 0 0 0 2.552-2.495 4.192 4.192 0 0 0-.284-3.552Zm75.526-4.848c-5.129-7.478-6.73-8.77-10.185-16.841-.463-1.065-.756-2.195-1.698-2.877a4.166 4.166 0 0 0-2.471-.797c-.26 0-.529.025-.797.073a24.3 24.3 0 0 1-4.608.455c-4.845 0-8.551-.812-8.551-11.045v-9.811l-.024.008V21.079a3.825 3.825 0 0 0-3.829-3.829h-27.838a3.824 3.824 0 0 0-3.828 3.828v150.798c0 11.297 1.04 19.832 6.226 27.456 6.348 8.729 18.987 13.785 30.602 13.785.609 0 1.211 0 1.796-.008h.024c7.055 0 13.94-.643 19.613-2.618 1.178-.406 5.397-2.552 6.267-3.438 2.722-2.804.008-6.421-.699-7.453ZM207.582 66.562c-21.117 0-39.063 7.43-51.881 21.49-12.086 13.249-18.743 31.87-18.743 52.417 0 20.865 6.592 38.762 19.06 51.775 13.102 13.655 31.894 20.873 54.343 20.873 24.254 0 44.59-8.486 60.464-25.229 1.455-1.528 1.52-4.324-.122-5.397-1.65-1.081-9.916-6.69-18.215-17.459-.991-.683-1.666-1.065-2.657-1.065h-.106c-1.032.033-2 .472-2.699 1.219-9.534 10.274-21.774 14.468-35.892 14.468-20.905 0-33.788-9.875-36.3-29.025h97.007a3.836 3.836 0 0 0 3.812-3.413c.349-3.113.528-6.584.528-10.03 0-19.832-6.51-37.714-18.336-50.345-12.42-13.264-29.805-20.279-50.263-20.279Zm-32.081 56.164c2.901-15.922 15.207-25.985 32.333-25.985 17.288 0 29.008 9.624 32.04 25.985h-64.373Zm321.197-56.164c-21.116 0-39.063 7.43-51.88 21.49-12.087 13.249-18.743 31.87-18.743 52.417 0 20.865 6.591 38.762 19.06 51.775 13.102 13.655 31.894 20.873 54.351 20.873 24.246 0 44.582-8.486 60.455-25.229 1.455-1.528 1.52-4.324-.122-5.397-1.65-1.081-9.916-6.69-18.214-17.459-.984-.683-1.666-1.065-2.658-1.065h-.106a3.871 3.871 0 0 0-2.698 1.219c-9.534 10.274-21.775 14.468-35.893 14.468-20.905 0-33.788-9.875-36.299-29.025h97.006a3.83 3.83 0 0 0 3.812-3.413c.35-3.113.529-6.584.529-10.03 0-19.832-6.511-37.714-18.337-50.345-12.419-13.264-29.805-20.279-50.263-20.279Zm-32.081 56.164c2.91-15.922 15.216-25.985 32.333-25.985 17.288 0 29.009 9.624 32.048 25.985h-64.381Z" fill="#6D1ED4"/><path d="M143.8 203.567c-.13-.138-.277-.268-.415-.407-.105-.105-.219-.203-.317-.317-6.527-6.803-11.81-14.849-15.711-23.912a3.838 3.838 0 0 0-3.519-2.316H50.841l89.277-114.238c.52-.675.804-1.504.804-2.357V37.757a3.826 3.826 0 0 0-3.828-3.836h-48.15V1.995a1.92 1.92 0 0 0-1.918-1.91H57.424a1.92 1.92 0 0 0-1.918 1.91V33.92H8.324a3.833 3.833 0 0 0-3.837 3.836v25.807a3.831 3.831 0 0 0 3.837 3.828H90.26L1.513 180.614a3.823 3.823 0 0 0-.813 2.365v23.27a3.826 3.826 0 0 0 3.828 3.836h51.003v31.919c0 1.064.861 1.918 1.918 1.918H87.05a1.917 1.917 0 0 0 1.918-1.918v-31.919h52.1a3.838 3.838 0 0 0 3.535-2.349 3.839 3.839 0 0 0-.804-4.169Z" fill="#6D1ED4"/></svg>