<svg width="256" height="250" viewBox="0 0 256 250" fill="none" xmlns="http://www.w3.org/2000/svg"><g clip-path="url(#a)"><path d="M213.5 0h-171C19.028 0 0 19.028 0 42.5v164.6c0 23.472 19.028 42.5 42.5 42.5h171c23.472 0 42.5-19.028 42.5-42.5V42.5C256 19.028 236.972 0 213.5 0Z" fill="#6B38B9"/><path d="M106.807 200.956h105.167v-36.06h-73.803l-31.364 36.06Zm-20.477-.064L213.075 55.2a3.731 3.731 0 0 0 .607-3.967A3.754 3.754 0 0 0 210.337 49H60.234v36.072h80.294L43.925 194.8a3.73 3.73 0 0 0-.607 3.967A3.755 3.755 0 0 0 46.662 201l39.668-.108Z" fill="#32CD96"/></g><defs><clipPath id="a"><path fill="#fff" d="M0 0h256v250H0z"/></clipPath></defs></svg>