<svg width="512" height="211" viewBox="0 0 512 211" fill="none" xmlns="http://www.w3.org/2000/svg"><g clip-path="url(#a)"><path d="M505.099 66.71v142.03h-33.956V66.7h33.946l.01.01Zm-280.825 0v142.03h-33.926V66.7l33.926.01Zm216.749-56.582V208.74h-33.978V10.128h33.978ZM185.332 22.047A21.953 21.953 0 0 1 189.057 9.8a22.125 22.125 0 0 1 9.94-8.121A22.26 22.26 0 0 1 211.799.423c4.298.85 8.247 2.95 11.345 6.032a22.007 22.007 0 0 1 6.06 11.285 21.923 21.923 0 0 1-1.27 12.732 22.047 22.047 0 0 1-8.17 9.882 22.236 22.236 0 0 1-12.315 3.698 22.36 22.36 0 0 1-15.588-6.498 22.125 22.125 0 0 1-6.529-15.508ZM466.21 32.225a21.924 21.924 0 0 1 3.725-12.234 22.115 22.115 0 0 1 9.933-8.113 22.247 22.247 0 0 1 12.79-1.257 22.174 22.174 0 0 1 11.337 6.022 21.979 21.979 0 0 1 6.061 11.273 21.906 21.906 0 0 1-1.257 12.722 22.046 22.046 0 0 1-8.154 9.882 22.22 22.22 0 0 1-12.3 3.71 22.361 22.361 0 0 1-15.608-6.487 22.106 22.106 0 0 1-6.527-15.518ZM342.868 66.791v72.878L258.59 66.995a3.513 3.513 0 0 0-5.231.688 3.463 3.463 0 0 0-.583 1.866v139.312h33.947v-73.03l84.31 72.899a3.518 3.518 0 0 0 1.783.822 3.526 3.526 0 0 0 3.456-1.513 3.496 3.496 0 0 0 .593-1.864V66.791h-33.997ZM61.438 208.79h98.658v-33.741H90.862L61.439 208.79Zm-19.209-.06 118.9-136.32a3.486 3.486 0 0 0 .569-3.712 3.507 3.507 0 0 0-1.263-1.5 3.535 3.535 0 0 0-1.874-.59H17.749v33.752h75.323L2.45 203.03a3.487 3.487 0 0 0 .694 5.21 3.526 3.526 0 0 0 1.875.591l37.211-.101Z" fill="#32CD96"/></g><defs><clipPath id="a"><path fill="#fff" d="M0 0h512v210.434H0z"/></clipPath></defs></svg>