<svg width="198" height="194" viewBox="0 0 198 194" fill="none" xmlns="http://www.w3.org/2000/svg">
<g clip-path="url(#clip0_207_49)">
<path d="M64.575 145.878C67.7399 143.822 70.8585 144.383 73.6464 146.5C75.8769 148.192 78.0606 147.954 80.4355 147.274C94.1068 143.35 99.8634 130.089 93.3634 117.348C88.7581 108.317 80.8848 103.106 71.6791 100.137C65.1791 98.0406 58.3282 96.9457 51.5699 95.7778C44.3783 94.5374 37.4547 92.6428 31.2593 88.6984C18.7703 80.7525 12.9569 69.407 14.5471 54.5167C15.5074 45.5275 18.0269 37.0105 23.2155 28.2911C23.8144 31.1768 24.341 33.2009 24.6508 35.2614C26.7624 49.3474 32.994 61.4767 42.1115 72.189C43.9908 74.3947 46.2058 76.4604 48.6324 78.0171C55.2872 82.2836 62.128 86.254 68.9067 90.3283C74.9421 93.9561 81.1684 97.2984 86.9872 101.248C92.1812 104.777 96.079 109.646 98.325 115.516C101.366 111.706 103.906 107.32 107.546 104.263C112.775 99.8728 118.682 96.2395 124.532 92.6742C129.519 89.6377 134.914 87.2868 140 84.4063C157.734 74.3687 167.899 58.8138 172.355 39.1748C173.006 36.3202 173.527 33.4345 174.147 30.5748C174.208 30.2841 174.565 30.0506 175.086 29.4381C180.992 40.4513 184.292 51.8799 183.094 64.2637C182.196 73.5384 177.477 80.8045 170.021 86.2644C163.078 91.3558 155.24 94.2157 146.809 95.6688C141.058 96.6547 135.286 97.6515 129.622 99.0525C121.093 101.17 113.405 105.079 108.026 112.267C105.599 115.505 103.395 119.284 102.398 123.161C99.4968 134.459 107.644 146.044 119.379 147.814C120.85 148.037 122.719 147.315 124.041 146.464C127.092 144.502 130.056 144.16 133.246 145.841C126.741 153.367 119.673 160.467 113.922 168.512C108.263 176.421 103.937 185.291 98.8719 194C93.7297 185.182 89.3053 176.193 83.5695 168.148C77.9368 160.228 70.967 153.263 64.575 145.878ZM107.061 163.337C104.133 161.391 101.454 159.61 98.7792 157.836C95.9964 159.766 93.3634 161.588 90.6578 163.467C93.4097 168.081 96.0169 172.445 98.9132 177.304C101.748 172.451 104.309 168.055 107.061 163.337ZM112.636 154.67C106.632 152.126 101.934 148.218 98.7275 141.772C95.8517 148.524 91.0244 151.893 84.5553 154.644C90.7508 156.771 94.8864 154.176 98.9031 151.265C103.033 154.716 107.318 156.642 112.636 154.67Z" fill="#A7F4CD"/>
<path d="M66.4751 133.515C69.6555 132.798 72.5518 132.394 75.2883 131.48C81.2769 129.493 83.8532 124.78 82.3869 119.055C80.9619 113.502 75.4326 109.687 69.862 110.756C67.3733 111.234 65.0088 112.396 62.6081 113.305C55.7156 115.915 48.911 118.796 41.9258 121.136C28.8637 125.512 15.3112 119.356 8.53751 109.827C-0.296138 97.397 -2.18575 83.6796 2.45566 68.2081C3.71024 69.6926 4.61375 70.58 5.30555 71.6128C10.2258 78.9204 15.5022 85.8749 22.3224 91.5844C31.0166 98.866 40.9088 102.535 52.1998 102.022C59.8875 101.674 67.2548 102.655 74.2295 106.039C79.2946 108.493 83.5745 111.826 86.3315 116.865C89.8577 123.311 88.975 131.823 84.2612 137.205C80.6161 141.362 74.9783 142.613 70.2286 140.319C67.3682 138.939 66.6403 137.672 66.4751 133.515Z" fill="#A7F4CD"/>
<path d="M194.87 68.3376C201.375 84.837 196.285 105.597 183.424 115.733C176.232 121.401 167.987 123.68 158.746 121.832C150.052 120.093 142.147 116.341 134.171 112.723C130.691 111.146 127.216 109.858 123.251 111.078C118.264 112.614 114.96 116.678 114.97 121.66C114.98 126.643 117.789 130.266 122.993 131.698C125.616 132.42 128.326 132.809 130.954 133.339C131.006 138.124 129.462 140.355 125.295 141.118C120.127 142.063 115.827 140.522 112.6 136.188C106.746 128.319 108.981 115.962 117.701 109.578C125.471 103.885 134.336 101.674 143.908 101.907C147.496 101.995 151.156 102.058 154.672 101.466C166.015 99.5666 175.045 93.4994 182.387 84.8319C185.5 81.1626 188.246 77.1763 191.153 73.3304C192.289 71.8409 193.388 70.3358 194.87 68.3376Z" fill="#A7F4CD"/>
<path d="M132.518 0.0882568C145.642 5.33541 156.046 13.4216 160.222 27.3465C164.905 42.9532 162.85 57.5579 151.038 69.4951C146.623 73.9536 141.295 77.6644 135.926 80.9652C128.14 85.7453 119.214 87.8265 110.22 90.1984C123.272 79.0865 132.271 65.4781 136.778 49.0048C141.362 32.2512 140.557 15.9543 132.518 0.0882568Z" fill="#A7F4CD"/>
<path d="M88.1899 90.9561C74.6634 86.7211 62.0867 82.7662 51.575 74.2442C35.6012 61.2947 30.8927 40.0261 39.8243 21.5336C44.2644 12.3472 54.8534 3.30608 65.0965 0C50.2225 35.6403 60.8374 64.8239 88.1899 90.9561Z" fill="#A7F4CD"/>
</g>
<defs>
<clipPath id="clip0_207_49">
<rect width="198" height="194" fill="white"/>
</clipPath>
</defs>
</svg>
