<svg width="168" height="194" viewBox="0 0 168 194" fill="none" xmlns="http://www.w3.org/2000/svg">
<g clip-path="url(#clip0_207_41)">
<path d="M59.1349 149.872C61.3286 150.532 63.5176 151.192 66.0671 151.959C70.8712 146.25 74.4415 139.775 77.0368 132.843C79.6014 125.982 81.5615 118.892 84.1568 110.72C87.27 126.261 92.2569 139.983 101.464 151.969C103.994 151.192 106.193 150.522 108.767 149.735C100.317 164.711 92.0997 179.262 83.7909 193.99C84.0249 193.99 83.8522 194.016 83.6897 193.985C83.5422 193.955 83.3645 193.899 83.273 193.787C83.0545 193.533 82.8365 193.269 82.6941 192.969C75.7417 178.211 67.7685 164.016 59.1349 149.872ZM92.7752 155.921C91.3226 152.279 89.3978 147.993 87.8947 143.559C86.3963 139.151 85.3247 134.605 84.0299 129.999C80.8911 139.323 77.9102 148.185 74.8679 157.231C77.7627 159.978 80.8608 162.924 83.8825 165.793C86.8533 162.492 89.5503 159.501 92.7752 155.921Z" fill="#A3E3EF"/>
<path d="M51.344 48.8569C48.7794 51.2082 47.073 52.7676 45.199 54.4841C51.0802 68.8312 60.6631 80.2073 72.0798 90.4664C57.6062 85.6568 42.9595 83.2799 27.6019 85.1644C26.9925 87.6018 26.4085 89.9384 25.7889 92.4165C17.0335 77.6225 8.48625 63.1889 0 48.8569C16.6627 48.8569 33.4372 48.8569 51.344 48.8569ZM27.3785 74.8545C37.2563 76.9419 46.6365 78.9227 55.2495 80.7459C49.257 74.0269 42.807 66.7996 36.2863 59.4967C32.4723 60.5986 28.4602 61.7568 24.3618 62.9402C25.3928 67.013 26.4136 71.0404 27.3785 74.8545Z" fill="#A3E3EF"/>
<path d="M167.673 48.8519C159.116 63.3057 150.569 77.7444 141.834 92.5031C141.26 90.0145 140.732 87.7493 140.143 85.1846C124.942 83.2699 110.276 85.5501 95.7205 90.4459C106.924 80.2229 116.492 68.9329 122.647 54.1741C120.799 52.7878 118.828 51.3099 116.857 49.832C117.035 49.5069 117.208 49.1817 117.385 48.857C134.14 48.8519 150.899 48.8519 167.673 48.8519ZM131.433 59.4866C124.694 67.008 118.274 74.1689 112.383 80.7459C121.179 78.8921 130.651 76.8962 140.265 74.8697C141.224 71.1216 142.26 67.079 143.317 62.9503C139.315 61.782 135.308 60.6141 131.433 59.4866Z" fill="#A3E3EF"/>
<path d="M83.5677 0C91.9724 14.9313 100.144 29.4461 108.554 44.3926C106.309 43.8036 104.044 43.2042 101.459 42.5236C92.2316 54.3926 87.2544 68.1914 83.8467 82.9346C80.4444 68.2826 75.4979 54.4993 66.1683 42.4577C63.7919 43.1739 61.5877 43.839 58.2816 44.8396C63.1315 36.8915 67.6516 29.9286 71.7142 22.7118C75.8483 15.363 79.5404 7.76528 83.5677 0ZM74.99 37.5923C77.9659 46.4192 80.9267 55.2155 83.8215 63.8035C86.7469 55.1697 89.7279 46.3633 92.8155 37.2572C90.0022 34.5705 86.899 31.6046 83.6845 28.5371C80.5306 31.8179 77.6408 34.8296 74.99 37.5923Z" fill="#A3E3EF"/>
<path d="M95.7153 104.108C110.164 108.562 124.744 111.507 140.097 109.242C140.686 106.789 141.224 104.534 141.839 101.959C150.599 116.748 159.182 131.233 167.668 145.555C151.143 145.555 134.307 145.555 116.461 145.555C118.853 143.32 120.514 141.766 122.5 139.907C116.644 125.799 107.203 114.382 95.7153 104.108ZM140.239 119.476C130.641 117.516 121.291 115.601 112.576 113.823C118.569 120.552 124.993 127.774 131.387 134.956C135.293 133.823 139.289 132.665 143.312 131.502C142.199 127.155 141.168 123.112 140.239 119.476Z" fill="#A3E3EF"/>
<path d="M25.8704 101.914C26.4036 104.326 26.8759 106.444 27.4701 109.14C42.6703 111.706 57.3522 108.496 72.0648 104.042C60.7347 114.204 51.1665 125.54 44.9707 140.4C46.7434 141.817 48.6476 143.33 51.4055 145.529C33.4171 145.529 16.6528 145.529 0.0357666 145.529C8.44586 131.329 17.0032 116.881 25.8704 101.914ZM27.3939 119.481C26.4595 123.28 25.4387 127.434 24.423 131.573C28.8108 132.812 32.8229 133.945 36.2966 134.925C42.8836 127.53 49.2063 120.441 55.0871 113.833C46.3267 115.621 36.9721 117.526 27.3939 119.481Z" fill="#A3E3EF"/>
<path d="M98.6001 122.919C95.7763 121.665 92.9172 120.654 90.3576 119.135C89.2352 118.47 88.3921 116.865 88.0014 115.525C86.6454 110.868 85.5481 106.139 84.0807 100.385C83.3544 102.117 82.9226 102.894 82.7041 103.722C82.0694 106.17 81.1809 108.618 81.0028 111.111C80.4697 118.607 75.5283 121.248 68.9111 122.655C68.6011 120.207 68.4335 117.876 67.9915 115.596C67.5244 113.178 68.2658 111.355 70.0281 109.735C72.268 107.683 74.4264 105.535 76.6049 103.417C77.9101 102.142 79.1901 100.837 80.1601 98.831C78.8192 99.1612 77.4682 99.4708 76.1327 99.8367C74.67 100.238 73.2279 100.736 71.7601 101.116C61.613 103.762 64.32 105.19 54.0968 97.0788C56.8748 95.0627 59.4344 93.011 62.2124 91.3147C63.0299 90.8169 64.5128 91.1164 65.5996 91.3958C69.1955 92.32 72.7452 93.4071 76.3205 94.4175C77.895 94.8645 79.4745 95.2862 82.1559 96.0227C78.0118 92.0814 74.8427 88.8059 71.3892 85.8602C68.3931 83.3005 67.0929 80.4464 68.1646 76.5509C68.5603 75.1087 68.591 73.5644 68.7838 72.0714C76.2596 72.7877 78.9511 74.9919 80.6831 81.8021C81.6275 85.5249 82.5063 89.268 84.2026 93.1123C84.4714 92.3355 84.7966 91.5735 84.9948 90.7761C85.609 88.3232 86.4929 85.8803 86.7063 83.3867C87.3309 76.119 91.8103 72.9347 98.3867 71.7517C98.59 71.9903 98.9353 72.2088 98.971 72.4676C100.367 82.1831 100.362 82.1831 93.1407 88.9836C90.9416 91.0504 88.758 93.1328 86.889 95.8193C91.0331 94.575 95.2483 93.5239 99.3059 92.0356C103.379 90.5375 106.812 90.9845 109.915 94.0772C110.956 95.1136 112.195 95.9462 113.8 97.2363C111.129 99.1406 108.981 101.076 106.482 102.295C105.009 103.011 102.887 103 101.226 102.609C96.6602 101.533 92.1859 100.08 86.7012 98.4958C87.6712 99.8875 87.9959 100.542 88.4887 101.02C90.19 102.66 92.0283 104.169 93.6788 105.86C100.88 113.229 100.982 110.278 98.6001 122.919Z" fill="#A3E3EF"/>
</g>
<defs>
<clipPath id="clip0_207_41">
<rect width="168" height="194" fill="white"/>
</clipPath>
</defs>
</svg>
