<svg width="206" height="195" viewBox="0 0 206 195" fill="none" xmlns="http://www.w3.org/2000/svg">
<path d="M22.4676 108.745C21.1984 110.063 19.8632 111.426 18.5499 112.811C16.1927 115.3 13.5828 116.465 10.2695 114.585C7.00568 112.739 3.70889 110.948 0 108.904C3.42317 104.81 6.90128 102.102 10.9948 100.662C12.7091 100.058 15.1927 101.036 17.1213 101.805C18.6983 102.431 19.973 103.816 22.4182 105.635C21.4346 96.7827 22.116 89.1562 23.616 81.4911C25.1655 73.5679 29.0667 66.9358 34.2756 59.3972C31.5723 59.6884 30.0777 59.7763 28.6106 60.0235C19.5939 61.5566 14.33 58.8257 10.6651 50.4299C9.35189 47.4298 8.39033 44.2704 7.35184 41.1549C7.02216 40.1659 6.96721 39.0834 6.74743 37.7867C7.91779 37.512 8.77495 37.1109 9.60465 37.1548C13.4344 37.3581 17.2532 37.6768 21.0775 37.968C28.1821 38.5065 32.7591 42.622 34.1437 49.6771C34.5613 51.8145 35.0064 53.941 35.4515 56.1333C37.6274 57.1663 38.7977 55.4685 40.1164 54.375C47.787 48.0232 56.6333 44.1715 66.4303 42.9956C78.2438 41.578 88.3814 45.721 96.7443 54.0014C100.442 57.6608 100.222 60.6444 96.7718 64.5182C94.7552 66.7765 93.2387 66.9743 91.4529 64.4193C85.5187 55.941 76.6339 54.6553 67.5622 55.1223C47.6111 56.1443 34.0503 71.0568 33.8306 91.0848C33.6218 110.014 41.4571 124.608 57.3422 134.663C63.6335 138.646 70.3974 141.987 77.2218 144.982C87.1506 149.339 96.1069 154.647 101.453 164.559C101.706 165.032 102.107 165.427 102.695 166.202C103.739 165.065 104.679 164.279 105.31 163.301C110.135 155.872 116.717 150.625 124.74 146.938C131.861 143.663 138.971 140.306 145.85 136.559C160.378 128.635 169.471 116.388 172.07 100.096C174.499 84.8649 170.697 70.9964 157.834 61.5566C146.724 53.4025 134.014 52.7157 121.465 58.5565C118.168 60.0895 115.69 63.3808 112.668 66.0072C106.387 63.7489 104.827 58.7158 109.69 54.0234C120.058 44.0286 132.234 40.2483 146.399 44.3034C153.685 46.3913 160.471 49.4299 166.202 54.5454C167.274 55.5015 168.598 56.1828 170.356 57.3586C170.906 54.6168 171.318 52.2266 171.867 49.8749C173.565 42.6 177.021 39.1549 184.422 38.1658C189.258 37.523 194.186 37.5779 199.868 37.2812C197.824 43.9187 196.511 50.1387 192.681 55.3531C189.126 60.1939 183.994 60.9961 178.417 60.1609C176.735 59.9082 175.065 59.5785 173.016 59.7488C182.296 73.4909 185.95 88.288 183.576 105.305C185.258 104.371 186.082 104.08 186.697 103.547C192.065 98.9312 193.917 99.6345 199.368 102.92C201.659 104.299 203.577 106.294 205.967 108.261C204.115 109.756 202.829 111.08 201.291 111.992C192.296 117.3 191.027 116.624 185.345 110.366C184.791 109.75 184.005 109.344 183.247 108.778C181.45 113.695 179.999 118.327 178.093 122.761C172.977 134.668 163.812 142.965 153.031 149.553C145.872 153.927 138.542 158.092 130.992 161.74C119.009 167.532 110.931 176.697 105.794 188.741C105.113 190.335 104.277 191.868 103.091 194.296C101.799 191.862 100.805 190.39 100.195 188.769C95.2827 175.774 86.1836 166.982 73.8096 160.839C64.683 156.306 55.8037 151.108 47.3419 145.421C34.6932 136.916 26.7974 124.888 23.6435 109.876C23.594 109.602 23.1709 109.404 22.4676 108.745Z" fill="#B1E92A"/>
<path d="M89.9035 130.459C84.0077 126.861 78.2109 123.086 72.1832 119.717C66.1061 116.327 59.7324 113.563 52.4684 114.525C50.1827 114.827 47.9189 115.3 45.0781 115.789C46.8474 110.223 51.0453 108.607 55.2103 107.256C56.0894 104.536 53.7762 103.508 52.8695 101.876C50.9354 98.4092 48.1222 95.4311 47.8859 91.1068C47.3804 81.8099 52.1442 75.4086 59.4851 70.881C65.1006 67.4194 71.5733 66.6886 78.0021 68.5623C82.6505 69.914 86.4363 72.5129 87.9639 78.0076C86.1561 78.112 84.7495 78.3318 83.3538 78.2548C75.0734 77.8098 70.7162 83.3594 69.0513 89.865C66.8754 98.3707 69.2546 105.761 74.7712 112.173C78.5735 116.591 82.8923 120.553 86.8814 124.811C88.3155 126.344 89.4529 128.163 90.7277 129.844C90.4529 130.053 90.1782 130.256 89.9035 130.459Z" fill="#B1E92A"/>
<path d="M118.756 78.1558C118.569 73.6447 121.718 71.7326 124.635 70.1007C137.449 62.9466 156.004 72.2326 158.207 86.7549C158.938 91.5518 157.543 95.7772 154.812 99.6674C153.262 101.871 151.746 104.096 149.916 106.744C154.488 108.734 159.279 109.92 160.801 115.525C158.284 115.146 156.185 114.778 154.075 114.514C147.432 113.69 141.383 115.717 135.745 118.866C130.014 122.069 124.52 125.701 118.91 129.13C117.91 129.74 116.866 130.273 115.844 130.839C115.569 130.525 115.294 130.218 115.02 129.904C118.355 126.185 121.58 122.36 125.053 118.772C129.498 114.173 134.245 109.909 136.515 103.602C138.674 97.5959 138.575 91.876 135.784 86.1341C132.993 80.3867 128.498 77.7108 122.119 78.1393C121.058 78.2163 119.981 78.1558 118.756 78.1558Z" fill="#B1E92A"/>
<path d="M103.063 52.6607C97.9366 47.2375 92.5848 43.144 88.8815 37.4076C86.6726 33.9844 86.0187 30.336 87.0408 26.4567C87.6397 24.182 88.2166 21.7753 89.4254 19.8137C93.5794 13.0498 98.0081 6.45621 102.206 0C103.299 0.31869 103.794 0.3077 103.953 0.532981C108.882 7.48371 114.3 14.0773 117.767 22.028C120.948 29.3194 119.476 35.5779 114.541 41.2044C111.206 45.0067 107.376 48.3914 103.063 52.6607Z" fill="#B1E92A"/>
</svg>
