<svg width="193" height="193" viewBox="0 0 193 193" fill="none" xmlns="http://www.w3.org/2000/svg">
<g clip-path="url(#clip0_207_60)">
<path d="M53.2545 117.627C55.0177 119.526 55.9044 120.479 56.796 121.431C65.0503 130.247 78.0419 129.503 85.0593 119.43C91.4944 110.188 92.6242 100.02 87.9528 89.6836C79.5465 71.0734 56.8416 63.7251 38.0992 73.2508C28.3099 78.2287 21.7685 86.0274 17.5833 96.0291C13.2105 106.477 12.1009 117.501 11.6803 128.647C11.5384 132.435 11.66 136.233 11.66 140.598C-9.393 107.135 -2.21825 50.4571 35.4796 22.0021C29.2524 33.8521 21.5 45.13 20.8565 60.221C22.7262 58.4786 23.9119 57.3951 25.0772 56.2911C35.2668 46.5983 46.6118 39.0478 60.7888 36.45C74.1402 34.004 89.3764 38.1009 100.336 47.6011C98.0814 48.1732 96.08 48.614 94.1192 49.1911C84.8872 51.9108 80.2764 59.5019 82.0242 69.0272C84.2437 81.1507 95.7963 90.7015 109.203 91.4716C131.371 92.7373 144.687 74.9473 146.435 58.9445C147.965 44.9123 143.025 33.1583 133.671 22.9946C126.613 15.3428 118.162 9.52412 109.072 4.58159C106.421 3.1383 103.721 1.78618 100.822 0.277083C133.018 -3.25259 185.663 27.1573 193 79.0898C185.988 67.6044 179.385 55.7643 166.931 47.6417C168.106 53.3946 169.297 58.2358 170.057 63.143C171.972 75.5599 170.923 87.6328 165.497 99.1688C159.943 110.968 150.58 118.341 137.862 123.309C138.47 121.228 138.84 119.871 139.265 118.534C143.208 106.157 135.637 95.1988 122.616 94.4492C107.318 93.573 93.5413 104.734 90.5772 120.408C87.0202 139.185 99.1858 157.999 118.334 163.316C127.353 165.822 136.372 165.488 145.285 162.9C156.032 159.781 166.166 155.264 175.438 148.913C176.527 148.169 177.673 147.511 179.01 146.68C173.994 161.27 150.088 180.265 127.586 188.064C105.479 195.726 77.2614 193.878 64.8526 186.57C75.6247 185.588 86.3617 186.504 96.5969 183.121C98.9781 182.337 101.299 181.379 104.734 180.098C102.475 179.319 101.198 178.842 99.9057 178.437C91.1906 175.703 82.6882 172.482 75.1079 167.256C64.1281 159.685 56.5683 149.683 53.7204 136.497C53.0874 133.554 52.8843 130.485 52.7932 127.467C52.7021 124.631 53.0364 121.79 53.2545 117.627Z" fill="#DFBBFF"/>
</g>
<defs>
<clipPath id="clip0_207_60">
<rect width="193" height="193" fill="white"/>
</clipPath>
</defs>
</svg>
