<svg width="181" height="193" viewBox="0 0 181 193" fill="none" xmlns="http://www.w3.org/2000/svg">
<g clip-path="url(#clip0_207_62)">
<path d="M180.626 96.2348C175.706 105.574 169.021 113.742 161.357 121.962C146.139 78.412 119.654 42.6522 89.7845 8.44533C72.9542 27.9361 55.7255 46.5138 48.6564 71.5822C48.9444 71.8307 49.2277 72.0793 49.5157 72.3279C62.8089 61.2393 76.1072 50.1464 89.7988 38.7282C105.352 53.339 118.065 69.8185 127.97 89.0799C118.363 99.9292 106.84 108.332 95.068 117.298C92.515 114.196 90.2356 111.424 88.5702 109.402C94.8571 102.725 100.712 96.4305 106.662 90.2221C110.214 86.518 110.334 86.5563 108.141 82.0779C103.855 73.3412 97.4582 66.3534 89.5299 59.9157C86.5498 61.7029 83.4495 63.2947 80.6423 65.2923C67.8575 74.3641 56.1286 84.6587 45.3259 95.9959C44.5678 96.7891 43.8671 97.6352 42.9745 98.6435C42.2931 97.8599 41.8179 97.4677 41.5346 96.9709C35.5792 86.5516 31.0345 75.5873 28.2558 63.8919C27.6032 61.1389 28.1167 59.0792 29.7771 56.8613C40.3494 42.7572 52.9372 30.5791 66.2115 19.0749C72.7093 13.4399 79.4904 8.12511 86.166 2.69084C87.3799 1.70149 88.7094 0.850748 89.8996 0C117.293 15.9826 169.717 71.5822 180.626 96.2348Z" fill="#F4D760"/>
<path d="M89.6357 193C78.6265 183.632 67.7471 174.771 57.3235 165.403C41.0405 150.774 25.9427 134.996 12.9901 117.322C8.85334 111.677 5.26846 105.636 1.32843 99.8482C-0.293651 97.4677 -0.571995 95.3459 1.29003 92.9512C6.65537 86.0402 11.9199 79.0525 17.2517 72.1176C17.6164 71.6443 18.2019 71.3386 19.0033 70.7075C34.0147 113.795 60.4432 149.459 89.8613 183.245C103.346 174.484 129.045 135.46 131.277 119.812C117.177 130.881 104.301 142.333 90.4322 153.584C74.9507 139.111 62.2907 122.622 52.2416 103.251C61.7725 92.4876 73.3523 84.1044 85.1006 75.0713C87.5672 78.0106 89.8756 80.7636 92.0255 83.3255C89.0404 86.542 86.43 89.5053 83.6561 92.3108C79.9559 96.0484 76.1886 99.7285 72.3349 103.308C70.6795 104.847 70.3532 106.377 71.2361 108.394C75.2336 117.499 81.5973 124.735 89.1028 131.101C90.4516 132.243 91.7856 131.918 93.0669 131.111C96.1719 129.161 99.3585 127.311 102.296 125.136C114.365 116.185 125.652 106.338 135.865 95.3077C136.287 94.8487 136.777 94.4519 137.199 94.0601C137.578 94.2226 137.952 94.2609 138.068 94.4519C144.628 105.297 149.268 116.906 152.177 129.232C152.757 131.699 151.956 133.457 150.555 135.355C142.468 146.295 133.134 156.122 123.027 165.174C113.885 173.361 104.34 181.099 94.9529 189.009C93.4894 190.223 91.9151 191.289 89.6357 193Z" fill="#F4D760"/>
</g>
<defs>
<clipPath id="clip0_207_62">
<rect width="181" height="193" fill="white"/>
</clipPath>
</defs>
</svg>
