<svg width="194" height="193" viewBox="0 0 194 193" fill="none" xmlns="http://www.w3.org/2000/svg">
<g clip-path="url(#clip0_207_55)">
<path d="M42.3264 170.75C43.4285 171.199 44.5748 171.566 45.6278 172.114C60.276 179.728 75.9058 183.464 92.3413 184.499C123.705 186.477 149.338 162.523 149.063 131.245C148.844 106.234 129.277 84.329 104.275 80.8122C96.7067 79.7495 89.3582 80.188 82.0751 82.3295C78.5051 83.3814 74.8747 84.1098 71.3649 82.5214C66.6869 80.4015 63.9833 76.682 63.5829 71.4891C63.1825 66.2747 65.0908 61.9306 69.7909 59.6629C74.0191 57.6252 78.5762 55.96 83.1777 55.0343C129.387 45.7445 169.832 84.8602 163.744 129.301C161.222 147.728 152.288 162.479 137.777 173.976C136.247 175.187 134.673 176.348 133.434 178.129C134.35 177.729 135.32 177.427 136.171 176.923C161.003 162.106 174.153 140.113 175.371 111.422C177.268 66.7348 142.214 37.2101 112.03 32.1433C80.8466 26.9066 55.1594 36.372 35.1971 60.89C29.2742 68.1699 22.3533 69.8185 15.2184 65.1518C10.6447 62.1607 8.71977 57.5487 10.4747 52.3887C11.5167 49.3266 13.0577 46.3304 14.8839 43.652C31.1717 19.7364 53.8868 5.74642 82.3329 1.1835C125.838 -5.8005 175.952 18.1314 190.562 72.8258C205.473 128.649 168.384 178.151 119.751 190.157C101.785 194.594 83.9123 193.767 66.2699 188.147C56.4478 185.019 48.6059 179.071 42.3264 170.75Z" fill="#01E5FF"/>
<path d="M123.113 163.58C116.291 173.883 102.498 179.344 89.7037 176.814C73.7996 173.67 62.1623 159.85 61.6139 143.477C61.1096 128.271 72.2917 113.563 87.7185 109.8C99.4161 106.952 110.159 109.269 119.422 117.25C124.934 121.999 127.807 128.211 128.92 135.233C129.716 140.245 127.911 144.627 124.434 148.188C119.833 152.898 111.69 152.214 107.604 146.665C106.024 144.518 105.07 141.855 104.094 139.325C100.617 130.33 92.1442 127.351 83.7535 132.259C72.374 138.919 69.9443 152.761 78.3296 163.207C85.9088 172.651 99.372 175.817 111.092 170.548C115.298 168.663 119.12 165.93 123.113 163.58Z" fill="#01E5FF"/>
<path d="M13.3813 84.9918C20.1706 84.981 26.258 91.0829 26.3512 97.985C26.4444 104.865 19.869 111.334 12.9151 111.202C6.06548 111.071 0.0219957 104.936 5.92627e-05 98.0834C-0.0218772 90.9459 6.04901 85.0026 13.3813 84.9918Z" fill="#01E5FF"/>
<path d="M39.6282 140.809C39.5405 145.799 35.389 149.831 30.4643 149.716C25.7699 149.606 21.2839 145.098 21.3059 140.513C21.3333 135.764 25.6602 131.42 30.4314 131.355C35.6413 131.284 39.7213 135.474 39.6282 140.809Z" fill="#01E5FF"/>
</g>
<defs>
<clipPath id="clip0_207_55">
<rect width="194" height="193" fill="white"/>
</clipPath>
</defs>
</svg>
