<svg width="160" height="193" viewBox="0 0 160 193" fill="none" xmlns="http://www.w3.org/2000/svg">
<g clip-path="url(#clip0_207_65)">
<path d="M81.4856 193C79.7596 191.617 78.0545 190.224 76.3235 188.861C64.822 179.835 53.1753 171.036 40.1546 164.198C34.0728 161.004 28.1721 157.432 22.3488 153.779C17.6933 150.863 13.012 147.88 8.81639 144.366C1.7117 138.415 -1.39886 130.772 0.590454 121.405C2.24907 113.587 5.30794 106.352 9.51393 99.5911C11.2346 96.825 13.0843 94.1211 15.0116 91.494C23.9454 79.3458 34.6671 68.4876 41.5548 53.9192C42.1283 55.5496 42.5364 56.2931 42.6396 57.072C43.8539 66.0156 48.6543 72.8745 55.9706 77.6119C62.1299 81.6012 68.9608 84.5633 75.4918 87.9798C76.3393 88.4233 77.2019 88.8414 77.9927 90.0387C76.3753 90.2348 74.7579 90.4205 73.1409 90.6324C56.0587 92.867 40.1801 104.277 37.2557 124.399C36.0983 132.377 38.4596 139.308 42.9086 145.733C43.7816 146.992 44.7787 148.169 45.9416 149.666C45.2286 149.758 44.691 150.006 44.4587 149.836C38.9453 145.769 32.8792 142.239 28.1049 137.43C17.714 126.953 16.4274 115.084 23.3874 102.068C24.9634 99.1163 26.9372 96.3761 28.942 93.2074C13.7612 99.8339 6.20703 115.734 11.0382 130.091C12.8518 135.484 16.2259 139.788 20.6437 143.215C23.6199 145.522 26.7925 147.643 30.0787 149.485C46.9956 158.986 64.9252 166.742 80.3486 178.932C81.6301 178.261 82.7358 177.817 83.692 177.157C97.0071 167.966 110.86 159.672 125.219 152.194C129.637 149.893 133.926 147.312 138.075 144.562C140.917 142.673 143.702 140.536 146.022 138.049C154.95 128.481 155.157 115.801 146.75 105.8C143.526 101.965 139.765 98.7554 134.639 95.9272C135.016 97.5839 135.191 98.6107 135.481 99.6015C136.732 103.875 138.276 108.081 139.227 112.416C141.702 123.655 138.473 133.497 131.048 142.028C118.812 156.096 89.639 168.765 64.3621 157.474C58.9573 155.059 53.8833 152.169 50.4935 147.127C43.9007 137.336 49.7032 124.471 61.205 123.47C64.0417 123.222 66.9299 123.62 71.0017 123.759C69.033 125.699 67.896 126.835 66.744 127.96C62.1917 132.398 60.6574 137.873 61.6804 143.984C62.4916 148.835 65.2661 152.442 69.7979 154.61C75.8895 157.525 82.3382 158.268 88.9314 157.448C95.6379 156.612 102.03 154.573 107.884 151.121C123.246 142.059 126.878 121.803 115.815 107.771C110.586 101.139 104.21 96.087 96.475 92.7481C90.6365 90.2298 84.6168 88.0933 78.9125 85.3064C73.3786 82.6075 67.6897 79.8827 62.8688 76.1412C50.7521 66.7382 48.8556 53.2896 57.2313 40.5424C58.9264 37.9621 60.771 35.4644 62.7084 33.0543C70.4591 23.4193 76.9697 13.2114 78.0131 0C78.9693 0.536714 79.6769 0.696695 79.9664 1.13019C84.3791 7.66882 89.2618 13.9649 92.982 20.8802C97.9633 30.1437 96.5113 35.8927 88.4301 42.6325C83.1907 47.0036 78.7161 51.8807 76.024 58.1922C72.1179 67.3369 74.8819 75.8675 83.971 81.5081C83.3302 80.4192 83.0667 79.8723 82.7099 79.3871C77.6927 72.5958 78.1426 65.6131 82.121 58.6153C86.1874 51.4627 92.0367 46.1471 99.7043 42.3488C96.4131 54.4557 94.2327 66.3152 100.366 78.0608C104.091 85.1929 110.261 93.0785 116.27 97.3361C115.97 93.3831 113.935 90.6942 112.069 87.8714C110.188 85.0227 108.184 82.174 106.871 79.0567C104.572 73.5917 104.815 67.9252 107.326 62.5424C109.176 58.579 111.005 54.5229 114.611 51.3542C114.968 52.1231 115.247 52.5307 115.35 52.9797C118.74 67.3265 126.826 78.5151 138.499 87.2931C145.376 92.4644 150.434 99.168 154.475 106.615C156.34 110.052 157.73 113.809 158.841 117.571C160.949 124.714 160.035 131.722 155.643 137.719C152.331 142.244 148.611 146.76 144.198 150.13C137.258 155.43 129.838 160.229 122.16 164.399C108.179 172.001 95.0489 180.671 83.4489 191.596C82.9789 192.061 82.3641 192.386 81.4856 193Z" fill="#B12E30"/>
<path d="M57.2058 116.322C60.5693 106.269 69.6634 99.901 80.2918 100.417C84.6736 100.629 89.2 101.496 93.2974 103.028C102.293 106.383 107.032 113.52 108.602 122.747C109.434 127.624 107.672 131.877 104.226 135.365C100.325 139.318 95.6379 142.064 89.794 144.376C90.1453 143.251 90.2489 142.683 90.4916 142.177C95.7674 131.335 91.1737 119.718 79.8423 115.29C73.8485 112.947 67.7878 112.942 61.6854 114.789C60.2748 115.218 58.8955 115.744 57.2058 116.322Z" fill="#B12E30"/>
</g>
<defs>
<clipPath id="clip0_207_65">
<rect width="160" height="193" fill="white"/>
</clipPath>
</defs>
</svg>
